<?xml version="1.0" encoding="utf-8" ?>
<!DOCTYPE svg PUBLIC "-//W3C//DTD SVG 1.1//EN" "http://www.w3.org/Graphics/SVG/1.1/DTD/svg11.dtd">
<svg height="251" version="1.1" width="629" xmlns="http://www.w3.org/2000/svg">
<rect fill="#ffffff" height="73" stroke="#ffffff" stroke-width="1" width="112" x="14" y="56"/>
<rect fill="none" height="73" stroke="#000000" stroke-width="1" width="112" x="14" y="56"/>
<text font-family="Times New Roman" font-size="14" x="52" y="70">
Graph</text>
<rect fill="#000000" height="1" stroke="#000000" stroke-width="1" width="112" x="14" y="81"/>
<text font-family="Times New Roman" font-size="14" x="18" y="96">
node [0..*] : Node</text>
<rect fill="#000000" height="1" stroke="#000000" stroke-width="1" width="112" x="14" y="107"/>
<rect fill="#ffffff" height="109" stroke="#ffffff" stroke-width="1" width="193" x="185" y="40"/>
<rect fill="none" height="109" stroke="#000000" stroke-width="1" width="193" x="185" y="40"/>
<text font-family="Times New Roman" font-size="14" x="266" y="54">
Node</text>
<rect fill="#000000" height="1" stroke="#000000" stroke-width="1" width="193" x="185" y="65"/>
<text font-family="Times New Roman" font-size="14" x="189" y="80">
object : Object</text>
<text font-family="Times New Roman" font-size="14" x="189" y="98">
connections [0..*] : Connections</text>
<text font-family="Times New Roman" font-size="14" x="189" y="116">
selfConnection [0..*] : String</text>
<rect fill="#000000" height="1" stroke="#000000" stroke-width="1" width="193" x="185" y="127"/>
<polyline fill="none" points="125,96 185,96" stroke="#000000" stroke-width="1"/>
<polygon fill="#000000" points="125,96 135,91 145,96 135,101" stroke="#000000" stroke-width="1"/>
<polygon fill="none" points="125,96 135,91 145,96 135,101" stroke="#000000" stroke-width="1"/>
<line fill="#000000" stroke="#000000" stroke-width="1" x1="173" x2="185" y1="103" y2="96"/>
<line fill="#000000" stroke="#000000" stroke-width="1" x1="173" x2="185" y1="89" y2="96"/>
<text font-family="Times New Roman" font-size="14" x="157" y="90">
0..*</text>
<text font-family="Times New Roman" font-size="14" x="145" y="111">
node</text>
<rect fill="#ffffff" height="109" stroke="#ffffff" stroke-width="1" width="137" x="478" y="40"/>
<rect fill="none" height="109" stroke="#000000" stroke-width="1" width="137" x="478" y="40"/>
<text font-family="Times New Roman" font-size="14" x="511" y="54">
Connections</text>
<rect fill="#000000" height="1" stroke="#000000" stroke-width="1" width="137" x="478" y="65"/>
<text font-family="Times New Roman" font-size="14" x="482" y="80">
color : String</text>
<text font-family="Times New Roman" font-size="14" x="482" y="98">
incoming [0..*] : Node</text>
<text font-family="Times New Roman" font-size="14" x="482" y="116">
outgoing [0..*] : Node</text>
<rect fill="#000000" height="1" stroke="#000000" stroke-width="1" width="137" x="478" y="127"/>
<polyline fill="none" points="377,48 478,48" stroke="#000000" stroke-width="1"/>
<polygon fill="#000000" points="377,48 387,43 397,48 387,53" stroke="#000000" stroke-width="1"/>
<polygon fill="none" points="377,48 387,43 397,48 387,53" stroke="#000000" stroke-width="1"/>
<line fill="#000000" stroke="#000000" stroke-width="1" x1="466" x2="478" y1="55" y2="48"/>
<line fill="#000000" stroke="#000000" stroke-width="1" x1="466" x2="478" y1="41" y2="48"/>
<text font-family="Times New Roman" font-size="14" x="440" y="40">
0..*</text>
<text font-family="Times New Roman" font-size="14" x="386" y="63">
connections</text>
<polyline fill="none" points="478,88 377,88" stroke="#000000" stroke-width="1"/>
<polygon fill="#ffffff" points="478,88 468,93 458,88 468,83" stroke="#ffffff" stroke-width="1"/>
<polygon fill="none" points="478,88 468,93 458,88 468,83" stroke="#000000" stroke-width="1"/>
<line fill="#000000" stroke="#000000" stroke-width="1" x1="389" x2="377" y1="81" y2="88"/>
<line fill="#000000" stroke="#000000" stroke-width="1" x1="389" x2="377" y1="95" y2="88"/>
<text font-family="Times New Roman" font-size="14" x="389" y="80">
0..*</text>
<text font-family="Times New Roman" font-size="14" x="385" y="108">
incoming</text>
<polyline fill="none" points="478,135 377,135" stroke="#000000" stroke-width="1"/>
<polygon fill="#ffffff" points="478,135 468,140 458,135 468,130" stroke="#ffffff" stroke-width="1"/>
<polygon fill="none" points="478,135 468,140 458,135 468,130" stroke="#000000" stroke-width="1"/>
<line fill="#000000" stroke="#000000" stroke-width="1" x1="389" x2="377" y1="128" y2="135"/>
<line fill="#000000" stroke="#000000" stroke-width="1" x1="389" x2="377" y1="142" y2="135"/>
<text font-family="Times New Roman" font-size="14" x="387" y="126">
0..*</text>
<text font-family="Times New Roman" font-size="14" x="383" y="152">
outgoing</text>
</svg>
