<?xml version="1.0" encoding="UTF-8"?><svg xmlns="http://www.w3.org/2000/svg" xmlns:xlink="http://www.w3.org/1999/xlink" fill-opacity="1" color-rendering="auto" color-interpolation="auto" stroke="black" text-rendering="auto" stroke-linecap="square" width="600" stroke-miterlimit="10" stroke-opacity="1" shape-rendering="auto" fill="black" stroke-dasharray="none" font-weight="normal" stroke-width="1" height="246" font-family="'Dialog'" font-style="normal" stroke-linejoin="miter" font-size="12" stroke-dashoffset="0" image-rendering="auto">
  <!--Generated by ySVG-->
  <defs id="genericDefs"/>
  <g>
    <defs id="defs1">
      <linearGradient x1="830" gradientUnits="userSpaceOnUse" x2="910" y1="370" y2="410" id="linearGradient1" spreadMethod="pad">
        <stop stop-opacity="1" stop-color="white" offset="0%"/>
        <stop stop-opacity="1" stop-color="white" offset="100%"/>
      </linearGradient>
      <clipPath clipPathUnits="userSpaceOnUse" id="clipPath1">
        <path d="M0 0 L600 0 L600 246 L0 246 L0 0 Z"/>
      </clipPath>
      <clipPath clipPathUnits="userSpaceOnUse" id="clipPath2">
        <path d="M825 267 L1425 267 L1425 513 L825 513 L825 267 Z"/>
      </clipPath>
    </defs>
    <g fill="white" transform="translate(-825,-267)" stroke="white">
      <rect x="825" width="600" height="246" y="267" clip-path="url(#clipPath2)" stroke="none"/>
    </g>
    <g stroke-linecap="butt" transform="matrix(1,0,0,1,-825,-267)" stroke-miterlimit="1.45">
      <path fill="none" d="M920 370 L1000 370 L1000 410 L920 410 Z" clip-path="url(#clipPath2)"/>
      <text x="936.9023" xml:space="preserve" y="394.3242" font-family="'Calibri'" clip-path="url(#clipPath2)" stroke="none">Вершина</text>
    </g>
    <g stroke-linecap="butt" transform="matrix(1,0,0,1,-825,-267)" stroke-miterlimit="1.45">
      <path fill="none" d="M1050 452 L1095 480 L1050 508 L1005 480 Z" clip-path="url(#clipPath2)"/>
      <text x="1028.9355" xml:space="preserve" y="484.3242" font-family="'Calibri'" clip-path="url(#clipPath2)" stroke="none">Исходит</text>
    </g>
    <g stroke-linecap="butt" transform="matrix(1,0,0,1,-825,-267)" stroke-miterlimit="1.45">
      <path fill="none" d="M1100 370 L1180 370 L1180 410 L1100 410 Z" clip-path="url(#clipPath2)"/>
      <rect fill="none" x="1103" width="74" height="34" y="373" clip-path="url(#clipPath2)"/>
      <text x="1128.4717" xml:space="preserve" y="394.3242" font-family="'Calibri'" clip-path="url(#clipPath2)" stroke="none">Дуга</text>
    </g>
    <g stroke-linecap="butt" transform="matrix(1,0,0,1,-825,-267)" stroke-miterlimit="1.45">
      <path fill="none" d="M1050 272 L1095 300 L1050 328 L1005 300 Z" clip-path="url(#clipPath2)"/>
      <text x="1032.0586" xml:space="preserve" y="304.3242" font-family="'Calibri'" clip-path="url(#clipPath2)" stroke="none">Входит</text>
    </g>
    <g fill="url(#linearGradient1)" stroke-miterlimit="1.45" transform="matrix(1,0,0,1,-825,-267)" stroke-linecap="butt" stroke="url(#linearGradient1)">
      <ellipse rx="40" ry="20" clip-path="url(#clipPath2)" cx="870" cy="390" stroke="none"/>
      <ellipse clip-path="url(#clipPath2)" fill="none" rx="40" cx="870" ry="20" cy="390" stroke="black"/>
      <text x="845.8418" y="394.3242" clip-path="url(#clipPath2)" fill="black" font-family="'Calibri'" stroke="none" xml:space="preserve">Значение</text>
    </g>
    <g stroke-linecap="butt" transform="matrix(1,0,0,1,-825,-267)" stroke-miterlimit="1.45">
      <path fill="none" d="M1340 370 L1420 370 L1420 410 L1340 410 Z" clip-path="url(#clipPath2)"/>
      <rect fill="none" x="1343" width="74" height="34" y="373" clip-path="url(#clipPath2)"/>
      <text x="1363.9043" xml:space="preserve" y="394.3242" font-family="'Calibri'" clip-path="url(#clipPath2)" stroke="none">Метка</text>
    </g>
    <g stroke-linecap="butt" transform="matrix(1,0,0,1,-825,-267)" stroke-miterlimit="1.45">
      <path fill="none" d="M1260 362 L1305 390 L1260 418 L1215 390 Z" clip-path="url(#clipPath2)"/>
      <text x="1224.6709" xml:space="preserve" y="394.3242" font-family="'Calibri'" clip-path="url(#clipPath2)" stroke="none">Обозначается</text>
    </g>
    <g stroke-linecap="butt" transform="matrix(1,0,0,1,-825,-267)" stroke-miterlimit="1.45">
      <path fill="none" d="M980.0171 410.0171 L1032.7435 462.7435" clip-path="url(#clipPath2)"/>
    </g>
    <g fill="white" stroke-miterlimit="1.45" transform="matrix(1,0,0,1,-825,-267)" stroke-linecap="butt" stroke="white">
      <rect x="1003.959" width="10.082" height="16" y="431" clip-path="url(#clipPath2)" stroke="none"/>
      <text x="1005.959" y="443.3242" clip-path="url(#clipPath2)" fill="black" font-family="'Calibri'" stroke="none" xml:space="preserve">1</text>
      <path fill="none" d="M1119.9829 410.0171 L1067.2565 462.7435" clip-path="url(#clipPath2)" stroke="black"/>
      <rect x="1085.127" width="11.7461" height="16" y="431" clip-path="url(#clipPath2)" stroke="none"/>
      <text x="1087.127" y="443.3242" clip-path="url(#clipPath2)" fill="black" font-family="'Calibri'" stroke="none" xml:space="preserve">N</text>
      <path fill="none" d="M980.0171 369.9829 L1032.7435 317.2565" clip-path="url(#clipPath2)" stroke="black"/>
      <rect x="1003.959" width="10.082" height="16" y="333" clip-path="url(#clipPath2)" stroke="none"/>
      <text x="1005.959" y="345.3242" clip-path="url(#clipPath2)" fill="black" font-family="'Calibri'" stroke="none" xml:space="preserve">1</text>
      <path fill="none" d="M1067.2485 317.2485 L1119.9827 369.9827" clip-path="url(#clipPath2)" stroke="black"/>
      <rect x="1085.127" width="11.7461" height="16" y="333" clip-path="url(#clipPath2)" stroke="none"/>
      <text x="1087.127" y="345.3242" clip-path="url(#clipPath2)" fill="black" font-family="'Calibri'" stroke="none" xml:space="preserve">N</text>
      <path fill="none" d="M919.9658 390 L909.9629 390" clip-path="url(#clipPath2)" stroke="black"/>
      <path fill="none" d="M1179.9902 390 L1215.0336 390" clip-path="url(#clipPath2)" stroke="black"/>
      <rect x="1191.627" width="11.7461" height="16" y="382" clip-path="url(#clipPath2)" stroke="none"/>
      <text x="1193.627" y="394.3242" clip-path="url(#clipPath2)" fill="black" font-family="'Calibri'" stroke="none" xml:space="preserve">N</text>
      <path fill="none" d="M1304.9707 390 L1340.0308 390" clip-path="url(#clipPath2)" stroke="black"/>
      <rect x="1317.459" width="10.082" height="16" y="382" clip-path="url(#clipPath2)" stroke="none"/>
      <text x="1319.459" y="394.3242" clip-path="url(#clipPath2)" fill="black" font-family="'Calibri'" stroke="none" xml:space="preserve">1</text>
    </g>
  </g>
</svg>
