<?xml version="1.0" encoding="UTF-8" standalone="no"?>
<!DOCTYPE svg PUBLIC "-//W3C//DTD SVG 1.1//EN"
 "http://www.w3.org/Graphics/SVG/1.1/DTD/svg11.dtd">
<!-- Generated by graphviz version 2.38.0 (20140413.2041)
 -->
<!-- Title: MatchVariant Pages: 1 -->
<svg width="795pt" height="515pt"
 viewBox="0.00 0.00 794.50 515.00" xmlns="http://www.w3.org/2000/svg" xmlns:xlink="http://www.w3.org/1999/xlink">
<g id="graph0" class="graph" transform="scale(1 1) rotate(0) translate(4 511)">
<title>MatchVariant</title>
<polygon fill="white" stroke="none" points="-4,4 -4,-511 790.5,-511 790.5,4 -4,4"/>
<!-- type of interface AbstractProduct -->
<g id="node1" class="node"><title>type of interface AbstractProduct</title>
<polygon fill="none" stroke="black" points="416.5,-157 207.5,-157 207.5,-104 416.5,-104 416.5,-157"/>
<text text-anchor="middle" x="312" y="-141.8" font-family="Times,serif" font-size="14.00">&lt;&lt;Type&gt;&gt;</text>
<text text-anchor="middle" x="312" y="-126.8" font-family="Times,serif" font-size="14.00">AbstractProduct</text>
<text text-anchor="middle" x="312" y="-111.8" font-family="Times,serif" font-size="14.00">com.iluwatar.abstractfactory.Army</text>
</g>
<!-- interface AbstractProduct -->
<g id="node2" class="node"><title>interface AbstractProduct</title>
<polygon fill="none" stroke="black" points="316.5,-53 107.5,-53 107.5,-0 316.5,-0 316.5,-53"/>
<text text-anchor="middle" x="212" y="-37.8" font-family="Times,serif" font-size="14.00">&lt;&lt;Interface&gt;&gt;</text>
<text text-anchor="middle" x="212" y="-22.8" font-family="Times,serif" font-size="14.00">AbstractProduct</text>
<text text-anchor="middle" x="212" y="-7.8" font-family="Times,serif" font-size="14.00">com.iluwatar.abstractfactory.Army</text>
</g>
<!-- type of interface AbstractProduct&#45;&gt;interface AbstractProduct -->
<g id="edge1" class="edge"><title>type of interface AbstractProduct&#45;&gt;interface AbstractProduct</title>
<path fill="none" stroke="black" d="M286.766,-103.761C273.975,-90.7147 258.292,-74.7176 244.598,-60.75"/>
<polygon fill="black" stroke="black" points="246.726,-57.9212 237.226,-53.2307 241.728,-62.8217 246.726,-57.9212"/>
<text text-anchor="middle" x="308" y="-74.8" font-family="Times,serif" font-size="14.00">TypeClassifier</text>
</g>
<!-- interface AbstractFactory -->
<g id="node3" class="node"><title>interface AbstractFactory</title>
<polygon fill="none" stroke="black" points="297.5,-403 28.5,-403 28.5,-350 297.5,-350 297.5,-403"/>
<text text-anchor="middle" x="163" y="-387.8" font-family="Times,serif" font-size="14.00">&lt;&lt;Interface&gt;&gt;</text>
<text text-anchor="middle" x="163" y="-372.8" font-family="Times,serif" font-size="14.00">AbstractFactory</text>
<text text-anchor="middle" x="163" y="-357.8" font-family="Times,serif" font-size="14.00">com.iluwatar.abstractfactory.KingdomFactory</text>
</g>
<!-- interface AbstractFactory&#45;&gt;interface AbstractProduct -->
<g id="edge3" class="edge"><title>interface AbstractFactory&#45;&gt;interface AbstractProduct</title>
<path fill="none" stroke="black" d="M151.996,-349.88C139.287,-316.95 121.405,-258.053 132,-208 143.338,-154.438 171.671,-97.4469 191.378,-62.1571"/>
<polygon fill="black" stroke="black" points="194.549,-63.6598 196.436,-53.2343 188.46,-60.2077 194.549,-63.6598"/>
<text text-anchor="middle" x="175" y="-178.8" font-family="Times,serif" font-size="14.00">Dependency</text>
</g>
<!-- +AbstractFactory::create(): AbstractProduct -->
<g id="node4" class="node"><title>+AbstractFactory::create(): AbstractProduct</title>
<polygon fill="none" stroke="black" points="482.5,-261 141.5,-261 141.5,-208 482.5,-208 482.5,-261"/>
<text text-anchor="middle" x="312" y="-245.8" font-family="Times,serif" font-size="14.00">&lt;&lt;Operation&gt;&gt;</text>
<text text-anchor="middle" x="312" y="-230.8" font-family="Times,serif" font-size="14.00">AbstractFactory::create</text>
<text text-anchor="middle" x="312" y="-215.8" font-family="Times,serif" font-size="14.00">com.iluwatar.abstractfactory.KingdomFactory::createArmy</text>
</g>
<!-- interface AbstractFactory&#45;&gt;+AbstractFactory::create(): AbstractProduct -->
<g id="edge2" class="edge"><title>interface AbstractFactory&#45;&gt;+AbstractFactory::create(): AbstractProduct</title>
<path fill="none" stroke="black" d="M190.329,-349.822C214.798,-326.831 250.8,-293.003 277.296,-268.108"/>
<polygon fill="black" stroke="black" points="279.953,-270.414 284.844,-261.015 275.16,-265.312 279.953,-270.414"/>
<text text-anchor="middle" x="302" y="-301.8" font-family="Times,serif" font-size="14.00">HasOperation</text>
</g>
<!-- +AbstractFactory::create(): AbstractProduct&#45;&gt;type of interface AbstractProduct -->
<g id="edge11" class="edge"><title>+AbstractFactory::create(): AbstractProduct&#45;&gt;type of interface AbstractProduct</title>
<path fill="none" stroke="black" d="M312,-207.761C312,-195.56 312,-180.779 312,-167.49"/>
<polygon fill="black" stroke="black" points="315.5,-167.231 312,-157.231 308.5,-167.231 315.5,-167.231"/>
<text text-anchor="middle" x="356.5" y="-178.8" font-family="Times,serif" font-size="14.00">OperationResult</text>
</g>
<!-- +ConcreteFactory::create(): AbstractProduct -->
<g id="node5" class="node"><title>+ConcreteFactory::create(): AbstractProduct</title>
<polygon fill="none" stroke="black" points="674,-403 316,-403 316,-350 674,-350 674,-403"/>
<text text-anchor="middle" x="495" y="-387.8" font-family="Times,serif" font-size="14.00">&lt;&lt;Operation&gt;&gt;</text>
<text text-anchor="middle" x="495" y="-372.8" font-family="Times,serif" font-size="14.00">ConcreteFactory::create</text>
<text text-anchor="middle" x="495" y="-357.8" font-family="Times,serif" font-size="14.00">com.iluwatar.abstractfactory.ElfKingdomFactory::createArmy</text>
</g>
<!-- +ConcreteFactory::create(): AbstractProduct&#45;&gt;type of interface AbstractProduct -->
<g id="edge5" class="edge"><title>+ConcreteFactory::create(): AbstractProduct&#45;&gt;type of interface AbstractProduct</title>
<path fill="none" stroke="black" d="M502.799,-349.836C511.94,-314.164 522.19,-249.328 491,-208 474.591,-186.257 450.77,-170.623 425.832,-159.405"/>
<polygon fill="black" stroke="black" points="427.176,-156.173 416.605,-155.469 424.43,-162.612 427.176,-156.173"/>
<text text-anchor="middle" x="555.5" y="-230.8" font-family="Times,serif" font-size="14.00">OperationResult</text>
</g>
<!-- +ConcreteFactory::create(): AbstractProduct&#45;&gt;+AbstractFactory::create(): AbstractProduct -->
<g id="edge4" class="edge"><title>+ConcreteFactory::create(): AbstractProduct&#45;&gt;+AbstractFactory::create(): AbstractProduct</title>
<path fill="none" stroke="black" d="M461.435,-349.822C430.996,-326.535 386.024,-292.131 353.372,-267.151"/>
<polygon fill="black" stroke="black" points="355.421,-264.312 345.352,-261.015 351.168,-269.871 355.421,-264.312"/>
<text text-anchor="middle" x="466" y="-301.8" font-family="Times,serif" font-size="14.00">Overriding</text>
</g>
<!-- class ConcreteProduct -->
<g id="node6" class="node"><title>class ConcreteProduct</title>
<polygon fill="none" stroke="black" points="786.5,-332 561.5,-332 561.5,-279 786.5,-279 786.5,-332"/>
<text text-anchor="middle" x="674" y="-316.8" font-family="Times,serif" font-size="14.00">&lt;&lt;Class&gt;&gt;</text>
<text text-anchor="middle" x="674" y="-301.8" font-family="Times,serif" font-size="14.00">ConcreteProduct</text>
<text text-anchor="middle" x="674" y="-286.8" font-family="Times,serif" font-size="14.00">com.iluwatar.abstractfactory.ElfArmy</text>
</g>
<!-- class ConcreteProduct&#45;&gt;interface AbstractProduct -->
<g id="edge6" class="edge"><title>class ConcreteProduct&#45;&gt;interface AbstractProduct</title>
<path fill="none" stroke="black" d="M659.528,-278.853C646.841,-257.973 626.882,-228.675 604,-208 520.897,-132.91 401.182,-83.9685 315.95,-56.2414"/>
<polygon fill="black" stroke="black" points="316.844,-52.8527 306.253,-53.1299 314.706,-59.518 316.844,-52.8527"/>
<text text-anchor="middle" x="619" y="-178.8" font-family="Times,serif" font-size="14.00">Generalization</text>
</g>
<!-- class ConcreteFactory -->
<g id="node7" class="node"><title>class ConcreteFactory</title>
<polygon fill="none" stroke="black" points="443,-507 157,-507 157,-454 443,-454 443,-507"/>
<text text-anchor="middle" x="300" y="-491.8" font-family="Times,serif" font-size="14.00">&lt;&lt;Class&gt;&gt;</text>
<text text-anchor="middle" x="300" y="-476.8" font-family="Times,serif" font-size="14.00">ConcreteFactory</text>
<text text-anchor="middle" x="300" y="-461.8" font-family="Times,serif" font-size="14.00">com.iluwatar.abstractfactory.ElfKingdomFactory</text>
</g>
<!-- class ConcreteFactory&#45;&gt;interface AbstractProduct -->
<g id="edge9" class="edge"><title>class ConcreteFactory&#45;&gt;interface AbstractProduct</title>
<path fill="none" stroke="black" d="M156.59,-456.35C79.4589,-439.693 0,-413.739 0,-377.5 0,-377.5 0,-377.5 0,-129.5 0,-80.1043 47.3127,-54.6151 97.236,-41.4689"/>
<polygon fill="black" stroke="black" points="98.3714,-44.7938 107.242,-39.0008 96.6949,-37.9975 98.3714,-44.7938"/>
<text text-anchor="middle" x="34" y="-230.8" font-family="Times,serif" font-size="14.00">Dependency</text>
</g>
<!-- class ConcreteFactory&#45;&gt;interface AbstractFactory -->
<g id="edge8" class="edge"><title>class ConcreteFactory&#45;&gt;interface AbstractFactory</title>
<path fill="none" stroke="black" d="M265.429,-453.761C247.257,-440.231 224.823,-423.529 205.586,-409.207"/>
<polygon fill="black" stroke="black" points="207.671,-406.395 197.56,-403.231 203.491,-412.01 207.671,-406.395"/>
<text text-anchor="middle" x="280" y="-424.8" font-family="Times,serif" font-size="14.00">Generalization</text>
</g>
<!-- class ConcreteFactory&#45;&gt;+ConcreteFactory::create(): AbstractProduct -->
<g id="edge7" class="edge"><title>class ConcreteFactory&#45;&gt;+ConcreteFactory::create(): AbstractProduct</title>
<path fill="none" stroke="black" d="M348.955,-453.893C375.729,-439.888 409.059,-422.454 437.116,-407.778"/>
<polygon fill="black" stroke="black" points="438.786,-410.854 446.025,-403.118 435.542,-404.651 438.786,-410.854"/>
<text text-anchor="middle" x="448" y="-424.8" font-family="Times,serif" font-size="14.00">HasOperation</text>
</g>
<!-- class ConcreteFactory&#45;&gt;class ConcreteProduct -->
<g id="edge10" class="edge"><title>class ConcreteFactory&#45;&gt;class ConcreteProduct</title>
<path fill="none" stroke="black" d="M443.061,-469.541C538.777,-459.555 652.581,-440.096 683,-403 696.691,-386.304 694.395,-362.1 688.7,-342.11"/>
<polygon fill="black" stroke="black" points="691.971,-340.847 685.583,-332.395 685.305,-342.986 691.971,-340.847"/>
<text text-anchor="middle" x="692" y="-424.8" font-family="Times,serif" font-size="14.00">Dependency</text>
</g>
</g>
</svg>

