<?xml version="1.0" encoding="UTF-8" standalone="no"?>
<!DOCTYPE svg PUBLIC "-//W3C//DTD SVG 1.1//EN"
 "http://www.w3.org/Graphics/SVG/1.1/DTD/svg11.dtd">
<!-- Generated by graphviz version 2.38.0 (20140413.2041)
 -->
<!-- Title: MatchVariant Pages: 1 -->
<svg width="805pt" height="477pt"
 viewBox="0.00 0.00 804.50 477.00" xmlns="http://www.w3.org/2000/svg" xmlns:xlink="http://www.w3.org/1999/xlink">
<g id="graph0" class="graph" transform="scale(1 1) rotate(0) translate(4 473)">
<title>MatchVariant</title>
<polygon fill="white" stroke="none" points="-4,4 -4,-473 800.5,-473 800.5,4 -4,4"/>
<!-- class ConcreteAdapter -->
<g id="node1" class="node"><title>class ConcreteAdapter</title>
<polygon fill="none" stroke="black" points="534,-469 309,-469 309,-416 534,-416 534,-469"/>
<text text-anchor="middle" x="421.5" y="-453.8" font-family="Times,serif" font-size="14.00">&lt;&lt;Class&gt;&gt;</text>
<text text-anchor="middle" x="421.5" y="-438.8" font-family="Times,serif" font-size="14.00">ConcreteAdapter</text>
<text text-anchor="middle" x="421.5" y="-423.8" font-family="Times,serif" font-size="14.00">com.iluwatar.adapter.GnomeEngineer</text>
</g>
<!-- +ConcreteAdapter::operation() -->
<g id="node2" class="node"><title>+ConcreteAdapter::operation()</title>
<polygon fill="none" stroke="black" points="311,-365 0,-365 0,-312 311,-312 311,-365"/>
<text text-anchor="middle" x="155.5" y="-349.8" font-family="Times,serif" font-size="14.00">&lt;&lt;Operation&gt;&gt;</text>
<text text-anchor="middle" x="155.5" y="-334.8" font-family="Times,serif" font-size="14.00">ConcreteAdapter::operation</text>
<text text-anchor="middle" x="155.5" y="-319.8" font-family="Times,serif" font-size="14.00">com.iluwatar.adapter.GnomeEngineer::operateDevice</text>
</g>
<!-- class ConcreteAdapter&#45;&gt;+ConcreteAdapter::operation() -->
<g id="edge1" class="edge"><title>class ConcreteAdapter&#45;&gt;+ConcreteAdapter::operation()</title>
<path fill="none" stroke="black" d="M354.72,-415.893C317.408,-401.585 270.76,-383.697 231.985,-368.829"/>
<polygon fill="black" stroke="black" points="232.897,-365.43 222.307,-365.118 230.391,-371.966 232.897,-365.43"/>
<text text-anchor="middle" x="342.5" y="-386.8" font-family="Times,serif" font-size="14.00">HasOperation</text>
</g>
<!-- &#45;ConcreteAdapter::adaptee: Adaptee -->
<g id="node3" class="node"><title>&#45;ConcreteAdapter::adaptee: Adaptee</title>
<polygon fill="none" stroke="black" points="796.5,-365 532.5,-365 532.5,-312 796.5,-312 796.5,-365"/>
<text text-anchor="middle" x="664.5" y="-349.8" font-family="Times,serif" font-size="14.00">&lt;&lt;Property&gt;&gt;</text>
<text text-anchor="middle" x="664.5" y="-334.8" font-family="Times,serif" font-size="14.00">ConcreteAdapter::adaptee</text>
<text text-anchor="middle" x="664.5" y="-319.8" font-family="Times,serif" font-size="14.00">com.iluwatar.adapter.GnomeEngineer::glider</text>
</g>
<!-- class ConcreteAdapter&#45;&gt;&#45;ConcreteAdapter::adaptee: Adaptee -->
<g id="edge2" class="edge"><title>class ConcreteAdapter&#45;&gt;&#45;ConcreteAdapter::adaptee: Adaptee</title>
<path fill="none" stroke="black" d="M482.506,-415.893C516.447,-401.646 558.845,-383.849 594.178,-369.018"/>
<polygon fill="black" stroke="black" points="595.603,-372.215 603.469,-365.118 592.894,-365.761 595.603,-372.215"/>
<text text-anchor="middle" x="592.5" y="-386.8" font-family="Times,serif" font-size="14.00">HasProperty</text>
</g>
<!-- interface Adapter -->
<g id="node4" class="node"><title>interface Adapter</title>
<polygon fill="none" stroke="black" points="514,-365 329,-365 329,-312 514,-312 514,-365"/>
<text text-anchor="middle" x="421.5" y="-349.8" font-family="Times,serif" font-size="14.00">&lt;&lt;Interface&gt;&gt;</text>
<text text-anchor="middle" x="421.5" y="-334.8" font-family="Times,serif" font-size="14.00">Adapter</text>
<text text-anchor="middle" x="421.5" y="-319.8" font-family="Times,serif" font-size="14.00">com.iluwatar.adapter.Engineer</text>
</g>
<!-- class ConcreteAdapter&#45;&gt;interface Adapter -->
<g id="edge3" class="edge"><title>class ConcreteAdapter&#45;&gt;interface Adapter</title>
<path fill="none" stroke="black" d="M421.5,-415.761C421.5,-403.56 421.5,-388.779 421.5,-375.49"/>
<polygon fill="black" stroke="black" points="425,-375.231 421.5,-365.231 418,-375.231 425,-375.231"/>
<text text-anchor="middle" x="461.5" y="-386.8" font-family="Times,serif" font-size="14.00">Generalization</text>
</g>
<!-- +Adapter::operation() -->
<g id="node6" class="node"><title>+Adapter::operation()</title>
<polygon fill="none" stroke="black" points="508.5,-261 238.5,-261 238.5,-208 508.5,-208 508.5,-261"/>
<text text-anchor="middle" x="373.5" y="-245.8" font-family="Times,serif" font-size="14.00">&lt;&lt;Operation&gt;&gt;</text>
<text text-anchor="middle" x="373.5" y="-230.8" font-family="Times,serif" font-size="14.00">Adapter::operation</text>
<text text-anchor="middle" x="373.5" y="-215.8" font-family="Times,serif" font-size="14.00">com.iluwatar.adapter.Engineer::operateDevice</text>
</g>
<!-- +ConcreteAdapter::operation()&#45;&gt;+Adapter::operation() -->
<g id="edge8" class="edge"><title>+ConcreteAdapter::operation()&#45;&gt;+Adapter::operation()</title>
<path fill="none" stroke="black" d="M210.229,-311.893C240.42,-297.767 278.068,-280.152 309.602,-265.397"/>
<polygon fill="black" stroke="black" points="311.174,-268.526 318.748,-261.118 308.207,-262.186 311.174,-268.526"/>
<text text-anchor="middle" x="308.5" y="-282.8" font-family="Times,serif" font-size="14.00">Overriding</text>
</g>
<!-- +Adaptee::adapted_operation() -->
<g id="node7" class="node"><title>+Adaptee::adapted_operation()</title>
<polygon fill="none" stroke="black" points="388,-53 131,-53 131,-0 388,-0 388,-53"/>
<text text-anchor="middle" x="259.5" y="-37.8" font-family="Times,serif" font-size="14.00">&lt;&lt;Operation&gt;&gt;</text>
<text text-anchor="middle" x="259.5" y="-22.8" font-family="Times,serif" font-size="14.00">Adaptee::adapted_operation</text>
<text text-anchor="middle" x="259.5" y="-7.8" font-family="Times,serif" font-size="14.00">com.iluwatar.adapter.GoblinGlider::takeOff</text>
</g>
<!-- +ConcreteAdapter::operation()&#45;&gt;+Adaptee::adapted_operation() -->
<g id="edge7" class="edge"><title>+ConcreteAdapter::operation()&#45;&gt;+Adaptee::adapted_operation()</title>
<path fill="none" stroke="black" d="M164.099,-311.868C182.67,-256.514 226.55,-125.717 247.699,-62.6762"/>
<polygon fill="black" stroke="black" points="251.028,-63.7562 250.891,-53.1623 244.392,-61.5298 251.028,-63.7562"/>
<text text-anchor="middle" x="239.5" y="-178.8" font-family="Times,serif" font-size="14.00">Invocation</text>
</g>
<!-- type of classifier Adaptee -->
<g id="node5" class="node"><title>type of classifier Adaptee</title>
<polygon fill="none" stroke="black" points="740.5,-261 532.5,-261 532.5,-208 740.5,-208 740.5,-261"/>
<text text-anchor="middle" x="636.5" y="-245.8" font-family="Times,serif" font-size="14.00">&lt;&lt;Type&gt;&gt;</text>
<text text-anchor="middle" x="636.5" y="-230.8" font-family="Times,serif" font-size="14.00">Adaptee</text>
<text text-anchor="middle" x="636.5" y="-215.8" font-family="Times,serif" font-size="14.00">com.iluwatar.adapter.GoblinGlider</text>
</g>
<!-- &#45;ConcreteAdapter::adaptee: Adaptee&#45;&gt;type of classifier Adaptee -->
<g id="edge4" class="edge"><title>&#45;ConcreteAdapter::adaptee: Adaptee&#45;&gt;type of classifier Adaptee</title>
<path fill="none" stroke="black" d="M657.434,-311.761C654.052,-299.439 649.947,-284.486 646.271,-271.096"/>
<polygon fill="black" stroke="black" points="649.586,-269.947 643.563,-261.231 642.835,-271.8 649.586,-269.947"/>
<text text-anchor="middle" x="689" y="-282.8" font-family="Times,serif" font-size="14.00">PropertyType</text>
</g>
<!-- interface Adapter&#45;&gt;+Adapter::operation() -->
<g id="edge5" class="edge"><title>interface Adapter&#45;&gt;+Adapter::operation()</title>
<path fill="none" stroke="black" d="M409.388,-311.761C403.475,-299.198 396.276,-283.899 389.881,-270.31"/>
<polygon fill="black" stroke="black" points="393.033,-268.789 385.609,-261.231 386.7,-271.769 393.033,-268.789"/>
<text text-anchor="middle" x="438.5" y="-282.8" font-family="Times,serif" font-size="14.00">HasOperation</text>
</g>
<!-- classifier Adaptee -->
<g id="node8" class="node"><title>classifier Adaptee</title>
<polygon fill="none" stroke="black" points="511.5,-157 303.5,-157 303.5,-104 511.5,-104 511.5,-157"/>
<text text-anchor="middle" x="407.5" y="-141.8" font-family="Times,serif" font-size="14.00">&lt;&lt;Classifier&gt;&gt;</text>
<text text-anchor="middle" x="407.5" y="-126.8" font-family="Times,serif" font-size="14.00">Adaptee</text>
<text text-anchor="middle" x="407.5" y="-111.8" font-family="Times,serif" font-size="14.00">com.iluwatar.adapter.GoblinGlider</text>
</g>
<!-- type of classifier Adaptee&#45;&gt;classifier Adaptee -->
<g id="edge6" class="edge"><title>type of classifier Adaptee&#45;&gt;classifier Adaptee</title>
<path fill="none" stroke="black" d="M579.009,-207.893C547.159,-193.706 507.408,-176 474.196,-161.208"/>
<polygon fill="black" stroke="black" points="475.573,-157.989 465.014,-157.118 472.725,-164.384 475.573,-157.989"/>
<text text-anchor="middle" x="576.5" y="-178.8" font-family="Times,serif" font-size="14.00">TypeClassifier</text>
</g>
<!-- classifier Adaptee&#45;&gt;+Adaptee::adapted_operation() -->
<g id="edge9" class="edge"><title>classifier Adaptee&#45;&gt;+Adaptee::adapted_operation()</title>
<path fill="none" stroke="black" d="M370.153,-103.761C350.359,-90.1192 325.884,-73.2512 304.989,-58.8506"/>
<polygon fill="black" stroke="black" points="306.798,-55.8467 296.578,-53.0538 302.826,-61.6105 306.798,-55.8467"/>
<text text-anchor="middle" x="380.5" y="-74.8" font-family="Times,serif" font-size="14.00">HasOperation</text>
</g>
</g>
</svg>

