<?xml version="1.0" encoding="UTF-8" standalone="no"?>
<!DOCTYPE svg PUBLIC "-//W3C//DTD SVG 1.1//EN"
 "http://www.w3.org/Graphics/SVG/1.1/DTD/svg11.dtd">
<!-- Generated by graphviz version 2.38.0 (20140413.2041)
 -->
<!-- Title: MatchVariant Pages: 1 -->
<svg width="968pt" height="1139pt"
 viewBox="0.00 0.00 968.00 1139.00" xmlns="http://www.w3.org/2000/svg" xmlns:xlink="http://www.w3.org/1999/xlink">
<g id="graph0" class="graph" transform="scale(1 1) rotate(0) translate(4 1135)">
<title>MatchVariant</title>
<polygon fill="white" stroke="none" points="-4,4 -4,-1135 964,-1135 964,4 -4,4"/>
<!-- +ConcreteElement::accept(in visitor: Visitor) -->
<g id="node1" class="node"><title>+ConcreteElement::accept(in visitor: Visitor)</title>
<polygon fill="none" stroke="black" points="820,-1131 608,-1131 608,-1078 820,-1078 820,-1131"/>
<text text-anchor="middle" x="714" y="-1115.8" font-family="Times,serif" font-size="14.00">&lt;&lt;Operation&gt;&gt;</text>
<text text-anchor="middle" x="714" y="-1100.8" font-family="Times,serif" font-size="14.00">ConcreteElement::accept</text>
<text text-anchor="middle" x="714" y="-1085.8" font-family="Times,serif" font-size="14.00">com.iluwatar.visitor.Soldier::accept</text>
</g>
<!-- in visitor: Visitor of +ConcreteElement::accept(in visitor: Visitor) -->
<g id="node2" class="node"><title>in visitor: Visitor of +ConcreteElement::accept(in visitor: Visitor)</title>
<polygon fill="none" stroke="black" points="797.5,-1027 692.5,-1027 692.5,-974 797.5,-974 797.5,-1027"/>
<text text-anchor="middle" x="745" y="-1011.8" font-family="Times,serif" font-size="14.00">&lt;&lt;Parameter&gt;&gt;</text>
<text text-anchor="middle" x="745" y="-996.8" font-family="Times,serif" font-size="14.00">visitor</text>
<text text-anchor="middle" x="745" y="-981.8" font-family="Times,serif" font-size="14.00">anonymous_35</text>
</g>
<!-- +ConcreteElement::accept(in visitor: Visitor)&#45;&gt;in visitor: Visitor of +ConcreteElement::accept(in visitor: Visitor) -->
<g id="edge1" class="edge"><title>+ConcreteElement::accept(in visitor: Visitor)&#45;&gt;in visitor: Visitor of +ConcreteElement::accept(in visitor: Visitor)</title>
<path fill="none" stroke="black" d="M721.823,-1077.76C725.567,-1065.44 730.112,-1050.49 734.182,-1037.1"/>
<polygon fill="black" stroke="black" points="737.621,-1037.82 737.18,-1027.23 730.923,-1035.78 737.621,-1037.82"/>
<text text-anchor="middle" x="770.5" y="-1048.8" font-family="Times,serif" font-size="14.00">HasParameter</text>
</g>
<!-- +Visitor::visit(in concrete_element: ConcreteElement) -->
<g id="node3" class="node"><title>+Visitor::visit(in concrete_element: ConcreteElement)</title>
<polygon fill="none" stroke="black" points="430,-715 168,-715 168,-662 430,-662 430,-715"/>
<text text-anchor="middle" x="299" y="-699.8" font-family="Times,serif" font-size="14.00">&lt;&lt;Operation&gt;&gt;</text>
<text text-anchor="middle" x="299" y="-684.8" font-family="Times,serif" font-size="14.00">Visitor::visit</text>
<text text-anchor="middle" x="299" y="-669.8" font-family="Times,serif" font-size="14.00">com.iluwatar.visitor.UnitVisitor::visitSoldier</text>
</g>
<!-- +ConcreteElement::accept(in visitor: Visitor)&#45;&gt;+Visitor::visit(in concrete_element: ConcreteElement) -->
<g id="edge2" class="edge"><title>+ConcreteElement::accept(in visitor: Visitor)&#45;&gt;+Visitor::visit(in concrete_element: ConcreteElement)</title>
<path fill="none" stroke="black" d="M607.896,-1095.74C495.468,-1084.53 334,-1058.49 334,-1001.5 334,-1001.5 334,-1001.5 334,-791.5 334,-768.277 325.783,-743.611 317.311,-724.353"/>
<polygon fill="black" stroke="black" points="320.403,-722.701 313.034,-715.089 314.048,-725.635 320.403,-722.701"/>
<text text-anchor="middle" x="363" y="-892.8" font-family="Times,serif" font-size="14.00">Invocation</text>
</g>
<!-- +Element::accept(in visitor: Visitor) -->
<g id="node4" class="node"><title>+Element::accept(in visitor: Visitor)</title>
<polygon fill="none" stroke="black" points="751.5,-157 554.5,-157 554.5,-104 751.5,-104 751.5,-157"/>
<text text-anchor="middle" x="653" y="-141.8" font-family="Times,serif" font-size="14.00">&lt;&lt;Operation&gt;&gt;</text>
<text text-anchor="middle" x="653" y="-126.8" font-family="Times,serif" font-size="14.00">Element::accept</text>
<text text-anchor="middle" x="653" y="-111.8" font-family="Times,serif" font-size="14.00">com.iluwatar.visitor.Unit::accept</text>
</g>
<!-- +ConcreteElement::accept(in visitor: Visitor)&#45;&gt;+Element::accept(in visitor: Visitor) -->
<g id="edge3" class="edge"><title>+ConcreteElement::accept(in visitor: Visitor)&#45;&gt;+Element::accept(in visitor: Visitor)</title>
<path fill="none" stroke="black" d="M820.04,-1083.68C861.81,-1069.17 900,-1044.22 900,-1001.5 900,-1001.5 900,-1001.5 900,-233.5 900,-169.402 828.061,-144.781 761.83,-135.696"/>
<polygon fill="black" stroke="black" points="762.045,-132.195 751.686,-134.416 761.169,-139.14 762.045,-132.195"/>
<text text-anchor="middle" x="930" y="-613.8" font-family="Times,serif" font-size="14.00">Overriding</text>
</g>
<!-- type of interface Visitor -->
<g id="node6" class="node"><title>type of interface Visitor</title>
<polygon fill="none" stroke="black" points="872,-923 680,-923 680,-870 872,-870 872,-923"/>
<text text-anchor="middle" x="776" y="-907.8" font-family="Times,serif" font-size="14.00">&lt;&lt;Type&gt;&gt;</text>
<text text-anchor="middle" x="776" y="-892.8" font-family="Times,serif" font-size="14.00">Visitor</text>
<text text-anchor="middle" x="776" y="-877.8" font-family="Times,serif" font-size="14.00">com.iluwatar.visitor.UnitVisitor</text>
</g>
<!-- in visitor: Visitor of +ConcreteElement::accept(in visitor: Visitor)&#45;&gt;type of interface Visitor -->
<g id="edge8" class="edge"><title>in visitor: Visitor of +ConcreteElement::accept(in visitor: Visitor)&#45;&gt;type of interface Visitor</title>
<path fill="none" stroke="black" d="M752.823,-973.761C756.567,-961.439 761.112,-946.486 765.182,-933.096"/>
<polygon fill="black" stroke="black" points="768.621,-933.816 768.18,-923.231 761.923,-931.781 768.621,-933.816"/>
<text text-anchor="middle" x="805" y="-944.8" font-family="Times,serif" font-size="14.00">ParameterType</text>
</g>
<!-- in concrete_element: ConcreteElement of +Visitor::visit(in concrete_element: ConcreteElement) -->
<g id="node13" class="node"><title>in concrete_element: ConcreteElement of +Visitor::visit(in concrete_element: ConcreteElement)</title>
<polygon fill="none" stroke="black" points="355.5,-573 242.5,-573 242.5,-520 355.5,-520 355.5,-573"/>
<text text-anchor="middle" x="299" y="-557.8" font-family="Times,serif" font-size="14.00">&lt;&lt;Parameter&gt;&gt;</text>
<text text-anchor="middle" x="299" y="-542.8" font-family="Times,serif" font-size="14.00">concrete_element</text>
<text text-anchor="middle" x="299" y="-527.8" font-family="Times,serif" font-size="14.00">anonymous_39</text>
</g>
<!-- +Visitor::visit(in concrete_element: ConcreteElement)&#45;&gt;in concrete_element: ConcreteElement of +Visitor::visit(in concrete_element: ConcreteElement) -->
<g id="edge13" class="edge"><title>+Visitor::visit(in concrete_element: ConcreteElement)&#45;&gt;in concrete_element: ConcreteElement of +Visitor::visit(in concrete_element: ConcreteElement)</title>
<path fill="none" stroke="black" d="M299,-661.822C299,-639.719 299,-607.601 299,-583.032"/>
<polygon fill="black" stroke="black" points="302.5,-583.015 299,-573.015 295.5,-583.015 302.5,-583.015"/>
<text text-anchor="middle" x="337.5" y="-613.8" font-family="Times,serif" font-size="14.00">HasParameter</text>
</g>
<!-- in visitor: Visitor of +Element::accept(in visitor: Visitor) -->
<g id="node5" class="node"><title>in visitor: Visitor of +Element::accept(in visitor: Visitor)</title>
<polygon fill="none" stroke="black" points="777.5,-53 672.5,-53 672.5,-0 777.5,-0 777.5,-53"/>
<text text-anchor="middle" x="725" y="-37.8" font-family="Times,serif" font-size="14.00">&lt;&lt;Parameter&gt;&gt;</text>
<text text-anchor="middle" x="725" y="-22.8" font-family="Times,serif" font-size="14.00">visitor</text>
<text text-anchor="middle" x="725" y="-7.8" font-family="Times,serif" font-size="14.00">anonymous_34</text>
</g>
<!-- +Element::accept(in visitor: Visitor)&#45;&gt;in visitor: Visitor of +Element::accept(in visitor: Visitor) -->
<g id="edge4" class="edge"><title>+Element::accept(in visitor: Visitor)&#45;&gt;in visitor: Visitor of +Element::accept(in visitor: Visitor)</title>
<path fill="none" stroke="black" d="M667.665,-103.949C673.922,-93.5188 681.501,-81.471 689,-71 691.31,-67.7747 693.789,-64.4821 696.326,-61.224"/>
<polygon fill="black" stroke="black" points="699.185,-63.253 702.69,-53.2545 693.715,-58.8853 699.185,-63.253"/>
<text text-anchor="middle" x="727.5" y="-74.8" font-family="Times,serif" font-size="14.00">HasParameter</text>
</g>
<!-- in visitor: Visitor of +Element::accept(in visitor: Visitor)&#45;&gt;type of interface Visitor -->
<g id="edge5" class="edge"><title>in visitor: Visitor of +Element::accept(in visitor: Visitor)&#45;&gt;type of interface Visitor</title>
<path fill="none" stroke="black" d="M753.431,-53.3777C758.18,-58.8118 762.645,-64.7913 766,-71 778.708,-94.5207 780,-102.766 780,-129.5 780,-793.5 780,-793.5 780,-793.5 780,-815.583 779.052,-840.334 778.08,-859.924"/>
<polygon fill="black" stroke="black" points="774.583,-859.772 777.558,-869.941 781.573,-860.136 774.583,-859.772"/>
<text text-anchor="middle" x="822" y="-438.8" font-family="Times,serif" font-size="14.00">ParameterType</text>
</g>
<!-- interface Visitor -->
<g id="node12" class="node"><title>interface Visitor</title>
<polygon fill="none" stroke="black" points="573,-819 381,-819 381,-766 573,-766 573,-819"/>
<text text-anchor="middle" x="477" y="-803.8" font-family="Times,serif" font-size="14.00">&lt;&lt;Interface&gt;&gt;</text>
<text text-anchor="middle" x="477" y="-788.8" font-family="Times,serif" font-size="14.00">Visitor</text>
<text text-anchor="middle" x="477" y="-773.8" font-family="Times,serif" font-size="14.00">com.iluwatar.visitor.UnitVisitor</text>
</g>
<!-- type of interface Visitor&#45;&gt;interface Visitor -->
<g id="edge14" class="edge"><title>type of interface Visitor&#45;&gt;interface Visitor</title>
<path fill="none" stroke="black" d="M700.936,-869.893C658.469,-855.406 605.245,-837.249 561.342,-822.272"/>
<polygon fill="black" stroke="black" points="562.43,-818.945 551.836,-819.029 560.17,-825.571 562.43,-818.945"/>
<text text-anchor="middle" x="685" y="-840.8" font-family="Times,serif" font-size="14.00">TypeClassifier</text>
</g>
<!-- in concrete_element: ConcreteElement of +ConcreteVisitor::visit(in concrete_element: ConcreteElement) -->
<g id="node7" class="node"><title>in concrete_element: ConcreteElement of +ConcreteVisitor::visit(in concrete_element: ConcreteElement)</title>
<polygon fill="none" stroke="black" points="196.5,-644 83.5,-644 83.5,-591 196.5,-591 196.5,-644"/>
<text text-anchor="middle" x="140" y="-628.8" font-family="Times,serif" font-size="14.00">&lt;&lt;Parameter&gt;&gt;</text>
<text text-anchor="middle" x="140" y="-613.8" font-family="Times,serif" font-size="14.00">concrete_element</text>
<text text-anchor="middle" x="140" y="-598.8" font-family="Times,serif" font-size="14.00">anonymous_36</text>
</g>
<!-- type of class ConcreteElement -->
<g id="node8" class="node"><title>type of class ConcreteElement</title>
<polygon fill="none" stroke="black" points="364,-469 194,-469 194,-416 364,-416 364,-469"/>
<text text-anchor="middle" x="279" y="-453.8" font-family="Times,serif" font-size="14.00">&lt;&lt;Type&gt;&gt;</text>
<text text-anchor="middle" x="279" y="-438.8" font-family="Times,serif" font-size="14.00">ConcreteElement</text>
<text text-anchor="middle" x="279" y="-423.8" font-family="Times,serif" font-size="14.00">com.iluwatar.visitor.Soldier</text>
</g>
<!-- in concrete_element: ConcreteElement of +ConcreteVisitor::visit(in concrete_element: ConcreteElement)&#45;&gt;type of class ConcreteElement -->
<g id="edge6" class="edge"><title>in concrete_element: ConcreteElement of +ConcreteVisitor::visit(in concrete_element: ConcreteElement)&#45;&gt;type of class ConcreteElement</title>
<path fill="none" stroke="black" d="M136.324,-590.69C134.725,-569.989 135.647,-541.02 149,-520 161.354,-500.553 180.571,-485.437 200.475,-473.972"/>
<polygon fill="black" stroke="black" points="202.246,-476.993 209.336,-469.12 198.884,-470.853 202.246,-476.993"/>
<text text-anchor="middle" x="191" y="-542.8" font-family="Times,serif" font-size="14.00">ParameterType</text>
</g>
<!-- class ConcreteElement -->
<g id="node9" class="node"><title>class ConcreteElement</title>
<polygon fill="none" stroke="black" points="509,-365 339,-365 339,-312 509,-312 509,-365"/>
<text text-anchor="middle" x="424" y="-349.8" font-family="Times,serif" font-size="14.00">&lt;&lt;Class&gt;&gt;</text>
<text text-anchor="middle" x="424" y="-334.8" font-family="Times,serif" font-size="14.00">ConcreteElement</text>
<text text-anchor="middle" x="424" y="-319.8" font-family="Times,serif" font-size="14.00">com.iluwatar.visitor.Soldier</text>
</g>
<!-- type of class ConcreteElement&#45;&gt;class ConcreteElement -->
<g id="edge7" class="edge"><title>type of class ConcreteElement&#45;&gt;class ConcreteElement</title>
<path fill="none" stroke="black" d="M282.113,-415.784C284.689,-404.458 289.397,-391.763 298,-383 306.891,-373.944 317.755,-366.772 329.338,-361.092"/>
<polygon fill="black" stroke="black" points="331.078,-364.147 338.758,-356.849 328.203,-357.764 331.078,-364.147"/>
<text text-anchor="middle" x="338" y="-386.8" font-family="Times,serif" font-size="14.00">TypeClassifier</text>
</g>
<!-- class ConcreteElement&#45;&gt;+ConcreteElement::accept(in visitor: Visitor) -->
<g id="edge23" class="edge"><title>class ConcreteElement&#45;&gt;+ConcreteElement::accept(in visitor: Visitor)</title>
<path fill="none" stroke="black" d="M509.223,-344.068C573.983,-352.695 652,-376.563 652,-441.5 652,-1001.5 652,-1001.5 652,-1001.5 652,-1026.95 666.272,-1051.46 681.121,-1070.07"/>
<polygon fill="black" stroke="black" points="678.601,-1072.52 687.706,-1077.93 683.966,-1068.02 678.601,-1072.52"/>
<text text-anchor="middle" x="690" y="-736.8" font-family="Times,serif" font-size="14.00">HasOperation</text>
</g>
<!-- interface Element -->
<g id="node11" class="node"><title>interface Element</title>
<polygon fill="none" stroke="black" points="646.5,-261 491.5,-261 491.5,-208 646.5,-208 646.5,-261"/>
<text text-anchor="middle" x="569" y="-245.8" font-family="Times,serif" font-size="14.00">&lt;&lt;Interface&gt;&gt;</text>
<text text-anchor="middle" x="569" y="-230.8" font-family="Times,serif" font-size="14.00">Element</text>
<text text-anchor="middle" x="569" y="-215.8" font-family="Times,serif" font-size="14.00">com.iluwatar.visitor.Unit</text>
</g>
<!-- class ConcreteElement&#45;&gt;interface Element -->
<g id="edge21" class="edge"><title>class ConcreteElement&#45;&gt;interface Element</title>
<path fill="none" stroke="black" d="M442.325,-311.978C451.255,-300.826 462.713,-288.217 475,-279 481.271,-274.296 488.132,-269.933 495.2,-265.93"/>
<polygon fill="black" stroke="black" points="497.096,-268.884 504.235,-261.055 493.772,-262.723 497.096,-268.884"/>
<text text-anchor="middle" x="515" y="-282.8" font-family="Times,serif" font-size="14.00">Generalization</text>
</g>
<!-- class ConcreteElement&#45;&gt;interface Visitor -->
<g id="edge22" class="edge"><title>class ConcreteElement&#45;&gt;interface Visitor</title>
<path fill="none" stroke="black" d="M417.779,-365.282C408.282,-408.548 392.608,-498.364 406,-573 413.45,-614.524 425.719,-621.958 439,-662 449.419,-693.413 459.909,-729.586 467.22,-755.703"/>
<polygon fill="black" stroke="black" points="463.903,-756.841 469.955,-765.537 470.647,-754.965 463.903,-756.841"/>
<text text-anchor="middle" x="440" y="-542.8" font-family="Times,serif" font-size="14.00">Dependency</text>
</g>
<!-- +ConcreteVisitor::visit(in concrete_element: ConcreteElement) -->
<g id="node10" class="node"><title>+ConcreteVisitor::visit(in concrete_element: ConcreteElement)</title>
<polygon fill="none" stroke="black" points="305.5,-819 28.5,-819 28.5,-766 305.5,-766 305.5,-819"/>
<text text-anchor="middle" x="167" y="-803.8" font-family="Times,serif" font-size="14.00">&lt;&lt;Operation&gt;&gt;</text>
<text text-anchor="middle" x="167" y="-788.8" font-family="Times,serif" font-size="14.00">ConcreteVisitor::visit</text>
<text text-anchor="middle" x="167" y="-773.8" font-family="Times,serif" font-size="14.00">com.iluwatar.visitor.SoldierVisitor::visitSoldier</text>
</g>
<!-- +ConcreteVisitor::visit(in concrete_element: ConcreteElement)&#45;&gt;+Visitor::visit(in concrete_element: ConcreteElement) -->
<g id="edge10" class="edge"><title>+ConcreteVisitor::visit(in concrete_element: ConcreteElement)&#45;&gt;+Visitor::visit(in concrete_element: ConcreteElement)</title>
<path fill="none" stroke="black" d="M200.309,-765.761C217.662,-752.352 239.048,-735.827 257.471,-721.591"/>
<polygon fill="black" stroke="black" points="259.929,-724.115 265.701,-715.231 255.649,-718.576 259.929,-724.115"/>
<text text-anchor="middle" x="271" y="-736.8" font-family="Times,serif" font-size="14.00">Overriding</text>
</g>
<!-- +ConcreteVisitor::visit(in concrete_element: ConcreteElement)&#45;&gt;in concrete_element: ConcreteElement of +ConcreteVisitor::visit(in concrete_element: ConcreteElement) -->
<g id="edge9" class="edge"><title>+ConcreteVisitor::visit(in concrete_element: ConcreteElement)&#45;&gt;in concrete_element: ConcreteElement of +ConcreteVisitor::visit(in concrete_element: ConcreteElement)</title>
<path fill="none" stroke="black" d="M151.833,-765.996C149.071,-760.255 146.57,-754.063 145,-748 137.018,-717.179 136.332,-680.864 137.316,-654.546"/>
<polygon fill="black" stroke="black" points="140.825,-654.432 137.803,-644.277 133.833,-654.1 140.825,-654.432"/>
<text text-anchor="middle" x="183.5" y="-736.8" font-family="Times,serif" font-size="14.00">HasParameter</text>
</g>
<!-- interface Element&#45;&gt;+Element::accept(in visitor: Visitor) -->
<g id="edge12" class="edge"><title>interface Element&#45;&gt;+Element::accept(in visitor: Visitor)</title>
<path fill="none" stroke="black" d="M590.197,-207.761C600.841,-194.835 613.871,-179.014 625.298,-165.139"/>
<polygon fill="black" stroke="black" points="628.155,-167.175 631.81,-157.231 622.751,-162.725 628.155,-167.175"/>
<text text-anchor="middle" x="655" y="-178.8" font-family="Times,serif" font-size="14.00">HasOperation</text>
</g>
<!-- interface Element&#45;&gt;interface Visitor -->
<g id="edge11" class="edge"><title>interface Element&#45;&gt;interface Visitor</title>
<path fill="none" stroke="black" d="M569.163,-261.166C569.616,-337.332 570.686,-557.744 568,-573 553.668,-654.412 541.605,-673.882 505,-748 503.528,-750.98 501.897,-754.006 500.184,-757.005"/>
<polygon fill="black" stroke="black" points="497.026,-755.465 494.871,-765.839 503.024,-759.073 497.026,-755.465"/>
<text text-anchor="middle" x="604" y="-490.8" font-family="Times,serif" font-size="14.00">Dependency</text>
</g>
<!-- interface Visitor&#45;&gt;+Visitor::visit(in concrete_element: ConcreteElement) -->
<g id="edge19" class="edge"><title>interface Visitor&#45;&gt;+Visitor::visit(in concrete_element: ConcreteElement)</title>
<path fill="none" stroke="black" d="M403.311,-765.887C391.187,-760.61 379,-754.616 368,-748 355.654,-740.575 343.296,-730.959 332.52,-721.677"/>
<polygon fill="black" stroke="black" points="334.788,-719.01 324.976,-715.012 330.153,-724.256 334.788,-719.01"/>
<text text-anchor="middle" x="406" y="-736.8" font-family="Times,serif" font-size="14.00">HasOperation</text>
</g>
<!-- interface Visitor&#45;&gt;class ConcreteElement -->
<g id="edge18" class="edge"><title>interface Visitor&#45;&gt;class ConcreteElement</title>
<path fill="none" stroke="black" d="M484.509,-765.754C489.82,-745.277 496,-715.799 496,-689.5 496,-689.5 496,-689.5 496,-441.5 496,-415.137 479.748,-390.801 462.687,-372.516"/>
<polygon fill="black" stroke="black" points="464.874,-369.747 455.371,-365.062 459.878,-374.65 464.874,-369.747"/>
<text text-anchor="middle" x="530" y="-542.8" font-family="Times,serif" font-size="14.00">Dependency</text>
</g>
<!-- in concrete_element: ConcreteElement of +Visitor::visit(in concrete_element: ConcreteElement)&#45;&gt;type of class ConcreteElement -->
<g id="edge20" class="edge"><title>in concrete_element: ConcreteElement of +Visitor::visit(in concrete_element: ConcreteElement)&#45;&gt;type of class ConcreteElement</title>
<path fill="none" stroke="black" d="M293.953,-519.761C291.537,-507.439 288.605,-492.486 285.98,-479.096"/>
<polygon fill="black" stroke="black" points="289.404,-478.37 284.045,-469.231 282.535,-479.717 289.404,-478.37"/>
<text text-anchor="middle" x="333" y="-490.8" font-family="Times,serif" font-size="14.00">ParameterType</text>
</g>
<!-- class ConcreteVisitor -->
<g id="node14" class="node"><title>class ConcreteVisitor</title>
<polygon fill="none" stroke="black" points="243.5,-923 36.5,-923 36.5,-870 243.5,-870 243.5,-923"/>
<text text-anchor="middle" x="140" y="-907.8" font-family="Times,serif" font-size="14.00">&lt;&lt;Class&gt;&gt;</text>
<text text-anchor="middle" x="140" y="-892.8" font-family="Times,serif" font-size="14.00">ConcreteVisitor</text>
<text text-anchor="middle" x="140" y="-877.8" font-family="Times,serif" font-size="14.00">com.iluwatar.visitor.SoldierVisitor</text>
</g>
<!-- class ConcreteVisitor&#45;&gt;class ConcreteElement -->
<g id="edge16" class="edge"><title>class ConcreteVisitor&#45;&gt;class ConcreteElement</title>
<path fill="none" stroke="black" d="M62.6294,-869.877C30.2512,-853.842 0,-829.286 0,-793.5 0,-793.5 0,-793.5 0,-441.5 0,-374.349 203.58,-351.284 328.61,-343.451"/>
<polygon fill="black" stroke="black" points="329.191,-346.923 338.962,-342.826 328.769,-339.935 329.191,-346.923"/>
<text text-anchor="middle" x="34" y="-613.8" font-family="Times,serif" font-size="14.00">Dependency</text>
</g>
<!-- class ConcreteVisitor&#45;&gt;+ConcreteVisitor::visit(in concrete_element: ConcreteElement) -->
<g id="edge17" class="edge"><title>class ConcreteVisitor&#45;&gt;+ConcreteVisitor::visit(in concrete_element: ConcreteElement)</title>
<path fill="none" stroke="black" d="M137.592,-869.738C137.354,-859.386 138.018,-847.452 141,-837 141.842,-834.049 142.937,-831.095 144.2,-828.194"/>
<polygon fill="black" stroke="black" points="147.369,-829.682 148.706,-819.172 141.107,-826.554 147.369,-829.682"/>
<text text-anchor="middle" x="179" y="-840.8" font-family="Times,serif" font-size="14.00">HasOperation</text>
</g>
<!-- class ConcreteVisitor&#45;&gt;interface Visitor -->
<g id="edge15" class="edge"><title>class ConcreteVisitor&#45;&gt;interface Visitor</title>
<path fill="none" stroke="black" d="M224.604,-869.893C272.769,-855.315 333.211,-837.021 382.872,-821.99"/>
<polygon fill="black" stroke="black" points="384.096,-825.276 392.653,-819.029 382.068,-818.576 384.096,-825.276"/>
<text text-anchor="middle" x="369" y="-840.8" font-family="Times,serif" font-size="14.00">Generalization</text>
</g>
</g>
</svg>

