<?xml version="1.0" encoding="utf-8" ?>
<!DOCTYPE svg PUBLIC "-//W3C//DTD SVG 1.1//EN" "http://www.w3.org/Graphics/SVG/1.1/DTD/svg11.dtd">
<svg height="427" version="1.1" width="685" xmlns="http://www.w3.org/2000/svg">
<rect fill="#ffffff" height="145" stroke="#ffffff" stroke-width="1" width="162" x="271" y="238"/>
<rect fill="none" height="145" stroke="#000000" stroke-width="1" width="162" x="271" y="238"/>
<text font-family="Times New Roman" font-size="14" x="326" y="252">
Classifier</text>
<rect fill="#000000" height="1" stroke="#000000" stroke-width="1" width="162" x="271" y="263"/>
<text font-family="Times New Roman" font-size="14" x="275" y="278">
name : String</text>
<text font-family="Times New Roman" font-size="14" x="275" y="296">
property [0..*] : Property</text>
<text font-family="Times New Roman" font-size="14" x="275" y="314">
operation [0..*] : Operation</text>
<text font-family="Times New Roman" font-size="14" x="275" y="332">
general [0..*] : Classifier</text>
<text font-family="Times New Roman" font-size="14" x="275" y="350">
supplier [0..*] : Classifier</text>
<rect fill="#000000" height="1" stroke="#000000" stroke-width="1" width="162" x="271" y="361"/>
<rect fill="#ffffff" height="271" stroke="#ffffff" stroke-width="1" width="188" x="14" y="142"/>
<rect fill="none" height="271" stroke="#000000" stroke-width="1" width="188" x="14" y="142"/>
<text font-family="Times New Roman" font-size="14" x="83" y="156">
Property</text>
<rect fill="#000000" height="1" stroke="#000000" stroke-width="1" width="188" x="14" y="167"/>
<text font-family="Times New Roman" font-size="14" x="18" y="182">
name : String</text>
<text font-family="Times New Roman" font-size="14" x="18" y="200">
owner : Classifier</text>
<text font-family="Times New Roman" font-size="14" x="18" y="218">
type [0..1] : Type</text>
<text font-family="Times New Roman" font-size="14" x="18" y="236">
subsetted [0..*] : Property</text>
<text font-family="Times New Roman" font-size="14" x="18" y="254">
visibility [0..1] : Visibility</text>
<text font-family="Times New Roman" font-size="14" x="18" y="272">
aggregation [0..1] : Aggregation</text>
<text font-family="Times New Roman" font-size="14" x="18" y="290">
isDerived [0..1] : Boolean</text>
<text font-family="Times New Roman" font-size="14" x="18" y="308">
isDerivedUnion [0..1] : Boolean</text>
<text font-family="Times New Roman" font-size="14" x="18" y="326">
isID [0..1] : Boolean</text>
<text font-family="Times New Roman" font-size="14" x="18" y="344">
isLeaf [0..1] : Boolean</text>
<text font-family="Times New Roman" font-size="14" x="18" y="362">
isReadOnly [0..1] : Boolean</text>
<text font-family="Times New Roman" font-size="14" x="18" y="380">
isStatic [0..1] : Boolean</text>
<rect fill="#000000" height="1" stroke="#000000" stroke-width="1" width="188" x="14" y="391"/>
<rect fill="#ffffff" height="217" stroke="#ffffff" stroke-width="1" width="168" x="502" y="166"/>
<rect fill="none" height="217" stroke="#000000" stroke-width="1" width="168" x="502" y="166"/>
<text font-family="Times New Roman" font-size="14" x="558" y="180">
Operation</text>
<rect fill="#000000" height="1" stroke="#000000" stroke-width="1" width="168" x="502" y="191"/>
<text font-family="Times New Roman" font-size="14" x="506" y="206">
name : String</text>
<text font-family="Times New Roman" font-size="14" x="506" y="224">
owner : Classifier</text>
<text font-family="Times New Roman" font-size="14" x="506" y="242">
invoke [0..*] : Operation</text>
<text font-family="Times New Roman" font-size="14" x="506" y="260">
result [0..1] : Type</text>
<text font-family="Times New Roman" font-size="14" x="506" y="278">
parameter [0..*] : Parameter</text>
<text font-family="Times New Roman" font-size="14" x="506" y="296">
visibility [0..1] : Visibility</text>
<text font-family="Times New Roman" font-size="14" x="506" y="314">
isLeaf [0..1] : Boolean</text>
<text font-family="Times New Roman" font-size="14" x="506" y="332">
isQuery [0..1] : Boolean</text>
<text font-family="Times New Roman" font-size="14" x="506" y="350">
isStatic [0..1] : Boolean</text>
<rect fill="#000000" height="1" stroke="#000000" stroke-width="1" width="168" x="502" y="361"/>
<rect fill="#ffffff" height="109" stroke="#ffffff" stroke-width="1" width="156" x="502" y="14"/>
<rect fill="none" height="109" stroke="#000000" stroke-width="1" width="156" x="502" y="14"/>
<text font-family="Times New Roman" font-size="14" x="551" y="28">
Parameter</text>
<rect fill="#000000" height="1" stroke="#000000" stroke-width="1" width="156" x="502" y="39"/>
<text font-family="Times New Roman" font-size="14" x="506" y="54">
name : String</text>
<text font-family="Times New Roman" font-size="14" x="506" y="72">
type [0..1] : Type</text>
<text font-family="Times New Roman" font-size="14" x="506" y="90">
direction [0..1] : Direction</text>
<rect fill="#000000" height="1" stroke="#000000" stroke-width="1" width="156" x="502" y="101"/>
<polyline fill="none" points="566,166 566,122" stroke="#000000" stroke-width="1"/>
<polygon fill="#000000" points="566,166 561,156 566,146 571,156" stroke="#000000" stroke-width="1"/>
<polygon fill="none" points="566,166 561,156 566,146 571,156" stroke="#000000" stroke-width="1"/>
<line fill="#000000" stroke="#000000" stroke-width="1" x1="573" x2="566" y1="134" y2="122"/>
<line fill="#000000" stroke="#000000" stroke-width="1" x1="559" x2="566" y1="134" y2="122"/>
<text font-family="Times New Roman" font-size="14" x="538" y="149">
0..*</text>
<text font-family="Times New Roman" font-size="14" x="569" y="143">
parameter</text>
<rect fill="#ffffff" height="145" stroke="#ffffff" stroke-width="1" width="181" x="262" y="46"/>
<rect fill="none" height="145" stroke="#000000" stroke-width="1" width="181" x="262" y="46"/>
<text font-family="Times New Roman" font-size="14" x="338" y="60">
Type</text>
<rect fill="#000000" height="1" stroke="#000000" stroke-width="1" width="181" x="262" y="71"/>
<text font-family="Times New Roman" font-size="14" x="266" y="86">
classifier : Classifier</text>
<text font-family="Times New Roman" font-size="14" x="266" y="104">
lower [0..1] : Integer</text>
<text font-family="Times New Roman" font-size="14" x="266" y="122">
upper [0..1] : UnlimitedNatural</text>
<text font-family="Times New Roman" font-size="14" x="266" y="140">
isUnique [0..1] : Boolean</text>
<text font-family="Times New Roman" font-size="14" x="266" y="158">
isOrdered [0..1] : Boolean</text>
<rect fill="#000000" height="1" stroke="#000000" stroke-width="1" width="181" x="262" y="169"/>
<polyline fill="none" points="201,160 262,160" stroke="#000000" stroke-width="1"/>
<polygon fill="#ffffff" points="201,160 211,155 221,160 211,165" stroke="#ffffff" stroke-width="1"/>
<polygon fill="none" points="201,160 211,155 221,160 211,165" stroke="#000000" stroke-width="1"/>
<line fill="#000000" stroke="#000000" stroke-width="1" x1="250" x2="262" y1="167" y2="160"/>
<line fill="#000000" stroke="#000000" stroke-width="1" x1="250" x2="262" y1="153" y2="160"/>
<text font-family="Times New Roman" font-size="14" x="223" y="154">
0..1</text>
<text font-family="Times New Roman" font-size="14" x="224" y="176">
type</text>
<polyline fill="none" points="502,94 442,94" stroke="#000000" stroke-width="1"/>
<polygon fill="#ffffff" points="502,94 492,99 482,94 492,89" stroke="#ffffff" stroke-width="1"/>
<polygon fill="none" points="502,94 492,99 482,94 492,89" stroke="#000000" stroke-width="1"/>
<line fill="#000000" stroke="#000000" stroke-width="1" x1="454" x2="442" y1="87" y2="94"/>
<line fill="#000000" stroke="#000000" stroke-width="1" x1="454" x2="442" y1="101" y2="94"/>
<text font-family="Times New Roman" font-size="14" x="454" y="86">
0..1</text>
<text font-family="Times New Roman" font-size="14" x="456" y="111">
type</text>
<polyline fill="none" points="502,174 442,174" stroke="#000000" stroke-width="1"/>
<polygon fill="#ffffff" points="502,174 492,179 482,174 492,169" stroke="#ffffff" stroke-width="1"/>
<polygon fill="none" points="502,174 492,179 482,174 492,169" stroke="#000000" stroke-width="1"/>
<line fill="#000000" stroke="#000000" stroke-width="1" x1="454" x2="442" y1="167" y2="174"/>
<line fill="#000000" stroke="#000000" stroke-width="1" x1="454" x2="442" y1="181" y2="174"/>
<text font-family="Times New Roman" font-size="14" x="456" y="168">
0..1</text>
<text font-family="Times New Roman" font-size="14" x="455" y="190">
result</text>
<polyline fill="none" points="350,190 350,238" stroke="#000000" stroke-width="1"/>
<polygon fill="#ffffff" points="350,190 355,200 350,210 345,200" stroke="#ffffff" stroke-width="1"/>
<polygon fill="none" points="350,190 355,200 350,210 345,200" stroke="#000000" stroke-width="1"/>
<line fill="#000000" stroke="#000000" stroke-width="1" x1="343" x2="350" y1="226" y2="238"/>
<line fill="#000000" stroke="#000000" stroke-width="1" x1="357" x2="350" y1="226" y2="238"/>
<text font-family="Times New Roman" font-size="14" x="363" y="221">
1</text>
<text font-family="Times New Roman" font-size="14" x="291" y="218">
classifier</text>
<polyline fill="none" points="201,270 271,270" stroke="#000000" stroke-width="1"/>
<polygon fill="#ffffff" points="201,270 211,265 221,270 211,275" stroke="#ffffff" stroke-width="1"/>
<polygon fill="none" points="201,270 211,265 221,270 211,275" stroke="#000000" stroke-width="1"/>
<line fill="#000000" stroke="#000000" stroke-width="1" x1="259" x2="271" y1="277" y2="270"/>
<line fill="#000000" stroke="#000000" stroke-width="1" x1="259" x2="271" y1="263" y2="270"/>
<text font-family="Times New Roman" font-size="14" x="250" y="264">
1</text>
<text font-family="Times New Roman" font-size="14" x="236" y="286">
owner</text>
<polyline fill="none" points="502,270 432,270" stroke="#000000" stroke-width="1"/>
<polygon fill="#ffffff" points="502,270 492,275 482,270 492,265" stroke="#ffffff" stroke-width="1"/>
<polygon fill="none" points="502,270 492,275 482,270 492,265" stroke="#000000" stroke-width="1"/>
<line fill="#000000" stroke="#000000" stroke-width="1" x1="444" x2="432" y1="263" y2="270"/>
<line fill="#000000" stroke="#000000" stroke-width="1" x1="444" x2="432" y1="277" y2="270"/>
<text font-family="Times New Roman" font-size="14" x="445" y="261">
1</text>
<text font-family="Times New Roman" font-size="14" x="440" y="286">
owner</text>
<polyline fill="none" points="432,318 502,318" stroke="#000000" stroke-width="1"/>
<polygon fill="#000000" points="432,318 442,313 452,318 442,323" stroke="#000000" stroke-width="1"/>
<polygon fill="none" points="432,318 442,313 452,318 442,323" stroke="#000000" stroke-width="1"/>
<line fill="#000000" stroke="#000000" stroke-width="1" x1="490" x2="502" y1="325" y2="318"/>
<line fill="#000000" stroke="#000000" stroke-width="1" x1="490" x2="502" y1="311" y2="318"/>
<text font-family="Times New Roman" font-size="14" x="474" y="309">
0..*</text>
<text font-family="Times New Roman" font-size="14" x="447" y="336">
operation</text>
<polyline fill="none" points="271,318 201,318" stroke="#000000" stroke-width="1"/>
<polygon fill="#000000" points="271,318 261,323 251,318 261,313" stroke="#000000" stroke-width="1"/>
<polygon fill="none" points="271,318 261,323 251,318 261,313" stroke="#000000" stroke-width="1"/>
<line fill="#000000" stroke="#000000" stroke-width="1" x1="213" x2="201" y1="311" y2="318"/>
<line fill="#000000" stroke="#000000" stroke-width="1" x1="213" x2="201" y1="325" y2="318"/>
<text font-family="Times New Roman" font-size="14" x="208" y="309">
0..*</text>
<text font-family="Times New Roman" font-size="14" x="207" y="334">
property</text>
</svg>
