<?xml version="1.0" encoding="UTF-8"?><svg xmlns="http://www.w3.org/2000/svg" xmlns:xlink="http://www.w3.org/1999/xlink" fill-opacity="1" color-rendering="auto" color-interpolation="auto" stroke="black" text-rendering="auto" stroke-linecap="square" width="690" stroke-miterlimit="10" stroke-opacity="1" shape-rendering="auto" fill="black" stroke-dasharray="none" font-weight="normal" stroke-width="1" height="405" font-family="'Dialog'" font-style="normal" stroke-linejoin="miter" font-size="12" stroke-dashoffset="0" image-rendering="auto">
  <!--Generated by ySVG-->
  <defs id="genericDefs"/>
  <g>
    <defs id="defs1">
      <linearGradient x1="1040" gradientUnits="userSpaceOnUse" x2="1120" y1="380" y2="400" id="linearGradient1" spreadMethod="pad">
        <stop stop-opacity="1" stop-color="white" offset="0%"/>
        <stop stop-opacity="1" stop-color="white" offset="100%"/>
      </linearGradient>
      <linearGradient x1="1310" gradientUnits="userSpaceOnUse" x2="1390" y1="530" y2="550" id="linearGradient2" spreadMethod="pad">
        <stop stop-opacity="1" stop-color="white" offset="0%"/>
        <stop stop-opacity="1" stop-color="white" offset="100%"/>
      </linearGradient>
      <linearGradient x1="1040" gradientUnits="userSpaceOnUse" x2="1120" y1="530" y2="550" id="linearGradient3" spreadMethod="pad">
        <stop stop-opacity="1" stop-color="white" offset="0%"/>
        <stop stop-opacity="1" stop-color="white" offset="100%"/>
      </linearGradient>
      <linearGradient x1="740" gradientUnits="userSpaceOnUse" x2="820" y1="650" y2="670" id="linearGradient4" spreadMethod="pad">
        <stop stop-opacity="1" stop-color="white" offset="0%"/>
        <stop stop-opacity="1" stop-color="white" offset="100%"/>
      </linearGradient>
      <linearGradient x1="1310" gradientUnits="userSpaceOnUse" x2="1390" y1="560" y2="580" id="linearGradient5" spreadMethod="pad">
        <stop stop-opacity="1" stop-color="white" offset="0%"/>
        <stop stop-opacity="1" stop-color="white" offset="100%"/>
      </linearGradient>
      <linearGradient x1="1310" gradientUnits="userSpaceOnUse" x2="1390" y1="590" y2="610" id="linearGradient6" spreadMethod="pad">
        <stop stop-opacity="1" stop-color="white" offset="0%"/>
        <stop stop-opacity="1" stop-color="white" offset="100%"/>
      </linearGradient>
      <linearGradient x1="1040" gradientUnits="userSpaceOnUse" x2="1120" y1="560" y2="580" id="linearGradient7" spreadMethod="pad">
        <stop stop-opacity="1" stop-color="white" offset="0%"/>
        <stop stop-opacity="1" stop-color="white" offset="100%"/>
      </linearGradient>
      <linearGradient x1="1040" gradientUnits="userSpaceOnUse" x2="1120" y1="590" y2="610" id="linearGradient8" spreadMethod="pad">
        <stop stop-opacity="1" stop-color="white" offset="0%"/>
        <stop stop-opacity="1" stop-color="white" offset="100%"/>
      </linearGradient>
      <linearGradient x1="1310" gradientUnits="userSpaceOnUse" x2="1390" y1="622.5" y2="642.5" id="linearGradient9" spreadMethod="pad">
        <stop stop-opacity="1" stop-color="white" offset="0%"/>
        <stop stop-opacity="1" stop-color="white" offset="100%"/>
      </linearGradient>
      <linearGradient x1="740" gradientUnits="userSpaceOnUse" x2="820" y1="680" y2="700" id="linearGradient10" spreadMethod="pad">
        <stop stop-opacity="1" stop-color="white" offset="0%"/>
        <stop stop-opacity="1" stop-color="white" offset="100%"/>
      </linearGradient>
      <linearGradient x1="740" gradientUnits="userSpaceOnUse" x2="820" y1="705" y2="735" id="linearGradient11" spreadMethod="pad">
        <stop stop-opacity="1" stop-color="white" offset="0%"/>
        <stop stop-opacity="1" stop-color="white" offset="100%"/>
      </linearGradient>
      <linearGradient x1="980" gradientUnits="userSpaceOnUse" x2="1060" y1="740" y2="760" id="linearGradient12" spreadMethod="pad">
        <stop stop-opacity="1" stop-color="white" offset="0%"/>
        <stop stop-opacity="1" stop-color="white" offset="100%"/>
      </linearGradient>
      <linearGradient x1="1070" gradientUnits="userSpaceOnUse" x2="1150" y1="740" y2="760" id="linearGradient13" spreadMethod="pad">
        <stop stop-opacity="1" stop-color="white" offset="0%"/>
        <stop stop-opacity="1" stop-color="white" offset="100%"/>
      </linearGradient>
      <linearGradient x1="1160" gradientUnits="userSpaceOnUse" x2="1240" y1="680" y2="700" id="linearGradient14" spreadMethod="pad">
        <stop stop-opacity="1" stop-color="white" offset="0%"/>
        <stop stop-opacity="1" stop-color="white" offset="100%"/>
      </linearGradient>
      <linearGradient x1="1160" gradientUnits="userSpaceOnUse" x2="1240" y1="735" y2="765" id="linearGradient15" spreadMethod="pad">
        <stop stop-opacity="1" stop-color="white" offset="0%"/>
        <stop stop-opacity="1" stop-color="white" offset="100%"/>
      </linearGradient>
      <clipPath clipPathUnits="userSpaceOnUse" id="clipPath1">
        <path d="M0 0 L690 0 L690 405 L0 405 L0 0 Z"/>
      </clipPath>
      <clipPath clipPathUnits="userSpaceOnUse" id="clipPath2">
        <path d="M705 365 L1395 365 L1395 770 L705 770 L705 365 Z"/>
      </clipPath>
    </defs>
    <g fill="white" transform="translate(-705,-365)" stroke="white">
      <rect x="705" width="690" height="405" y="365" clip-path="url(#clipPath2)" stroke="none"/>
    </g>
    <g stroke-linecap="butt" transform="matrix(1,0,0,1,-705,-365)" stroke-miterlimit="1.45">
      <path fill="none" d="M1040 430 L1120 430 L1120 470 L1040 470 Z" clip-path="url(#clipPath2)"/>
      <text x="1041.2051" xml:space="preserve" y="454.3242" font-family="'Calibri'" clip-path="url(#clipPath2)" stroke="none">Классификатор</text>
    </g>
    <g stroke-linecap="butt" transform="matrix(1,0,0,1,-705,-365)" stroke-miterlimit="1.45">
      <path fill="none" d="M990 495 L1035 510 L990 525 L945 510 Z" clip-path="url(#clipPath2)"/>
      <text x="964.4502" xml:space="preserve" y="514.3242" font-family="'Calibri'" clip-path="url(#clipPath2)" stroke="none">Содержит</text>
    </g>
    <g fill="url(#linearGradient1)" stroke-miterlimit="1.45" transform="matrix(1,0,0,1,-705,-365)" stroke-linecap="butt" stroke="url(#linearGradient1)">
      <ellipse rx="40" ry="10" clip-path="url(#clipPath2)" cx="1080" cy="390" stroke="none"/>
      <ellipse clip-path="url(#clipPath2)" fill="none" rx="40" cx="1080" ry="10" cy="390" stroke="black"/>
      <text x="1055.666" y="394.3242" clip-path="url(#clipPath2)" fill="black" font-family="'Calibri'" stroke="none" xml:space="preserve">Название</text>
    </g>
    <g stroke-linecap="butt" transform="matrix(1,0,0,1,-705,-365)" stroke-miterlimit="1.45">
      <path fill="none" d="M1220 550 L1300 550 L1300 590 L1220 590 Z" clip-path="url(#clipPath2)"/>
      <text x="1236.6211" xml:space="preserve" y="574.3242" font-family="'Calibri'" clip-path="url(#clipPath2)" stroke="none">Свойство</text>
    </g>
    <g stroke-linecap="butt" transform="matrix(1,0,0,1,-705,-365)" stroke-miterlimit="1.45">
      <path fill="none" d="M950 550 L1030 550 L1030 590 L950 590 Z" clip-path="url(#clipPath2)"/>
      <text x="964.5557" xml:space="preserve" y="574.3242" font-family="'Calibri'" clip-path="url(#clipPath2)" stroke="none">Операция</text>
    </g>
    <g stroke-linecap="butt" transform="matrix(1,0,0,1,-705,-365)" stroke-miterlimit="1.45">
      <path fill="none" d="M1070 670 L1150 670 L1150 710 L1070 710 Z" clip-path="url(#clipPath2)"/>
      <rect fill="none" x="1073" width="74" height="34" y="673" clip-path="url(#clipPath2)"/>
      <text x="1100.71" xml:space="preserve" y="694.3242" font-family="'Calibri'" clip-path="url(#clipPath2)" stroke="none">Тип</text>
    </g>
    <g stroke-linecap="butt" transform="matrix(1,0,0,1,-705,-365)" stroke-miterlimit="1.45">
      <path fill="none" d="M830 670 L910 670 L910 710 L830 710 Z" clip-path="url(#clipPath2)"/>
      <text x="844.8516" xml:space="preserve" y="694.3242" font-family="'Calibri'" clip-path="url(#clipPath2)" stroke="none">Параметр</text>
    </g>
    <g fill="url(#linearGradient2)" stroke-miterlimit="1.45" transform="matrix(1,0,0,1,-705,-365)" stroke-linecap="butt" stroke="url(#linearGradient2)">
      <ellipse rx="40" ry="10" clip-path="url(#clipPath2)" cx="1350" cy="540" stroke="none"/>
      <ellipse clip-path="url(#clipPath2)" fill="none" rx="40" cx="1350" ry="10" cy="540" stroke="black"/>
      <text x="1325.666" y="544.3242" clip-path="url(#clipPath2)" fill="black" font-family="'Calibri'" stroke="none" xml:space="preserve">Название</text>
    </g>
    <g stroke-linecap="butt" transform="matrix(1,0,0,1,-705,-365)" stroke-miterlimit="1.45">
      <path fill="none" d="M1260 495 L1305 510 L1260 525 L1215 510 Z" clip-path="url(#clipPath2)"/>
      <text x="1234.4502" xml:space="preserve" y="514.3242" font-family="'Calibri'" clip-path="url(#clipPath2)" stroke="none">Содержит</text>
    </g>
    <g stroke-linecap="butt" transform="matrix(1,0,0,1,-705,-365)" stroke-miterlimit="1.45">
      <path fill="none" d="M990 615 L1035 630 L990 645 L945 630 Z" clip-path="url(#clipPath2)"/>
      <text x="959.458" xml:space="preserve" y="634.3242" font-family="'Calibri'" clip-path="url(#clipPath2)" stroke="none">Возвращает</text>
    </g>
    <g stroke-linecap="butt" transform="matrix(1,0,0,1,-705,-365)" stroke-miterlimit="1.45">
      <path fill="none" d="M870 615 L915 630 L870 645 L825 630 Z" clip-path="url(#clipPath2)"/>
      <text x="853.7988" xml:space="preserve" y="634.3242" font-family="'Calibri'" clip-path="url(#clipPath2)" stroke="none">Имеет</text>
    </g>
    <g fill="url(#linearGradient3)" stroke-miterlimit="1.45" transform="matrix(1,0,0,1,-705,-365)" stroke-linecap="butt" stroke="url(#linearGradient3)">
      <ellipse rx="40" ry="10" clip-path="url(#clipPath2)" cx="1080" cy="540" stroke="none"/>
      <ellipse clip-path="url(#clipPath2)" fill="none" rx="40" cx="1080" ry="10" cy="540" stroke="black"/>
      <text x="1055.666" y="544.3242" clip-path="url(#clipPath2)" fill="black" font-family="'Calibri'" stroke="none" xml:space="preserve">Название</text>
    </g>
    <g fill="url(#linearGradient4)" stroke-miterlimit="1.45" transform="matrix(1,0,0,1,-705,-365)" stroke-linecap="butt" stroke="url(#linearGradient4)">
      <ellipse rx="40" ry="10" clip-path="url(#clipPath2)" cx="780" cy="660" stroke="none"/>
      <ellipse clip-path="url(#clipPath2)" fill="none" rx="40" cx="780" ry="10" cy="660" stroke="black"/>
      <text x="755.666" y="664.3242" clip-path="url(#clipPath2)" fill="black" font-family="'Calibri'" stroke="none" xml:space="preserve">Название</text>
    </g>
    <g stroke-linecap="butt" transform="matrix(1,0,0,1,-705,-365)" stroke-miterlimit="1.45">
      <path fill="none" d="M990 375 L1035 390 L990 405 L945 390 Z" clip-path="url(#clipPath2)"/>
      <text x="954.3398" xml:space="preserve" y="394.3242" font-family="'Calibri'" clip-path="url(#clipPath2)" stroke="none">Производный</text>
    </g>
    <g stroke-linecap="butt" transform="matrix(1,0,0,1,-705,-365)" stroke-miterlimit="1.45">
      <path fill="none" d="M1170 375 L1215 390 L1170 405 L1125 390 Z" clip-path="url(#clipPath2)"/>
      <text x="1151.9209" xml:space="preserve" y="394.3242" font-family="'Calibri'" clip-path="url(#clipPath2)" stroke="none">Клиент</text>
    </g>
    <g stroke-linecap="butt" transform="matrix(1,0,0,1,-705,-365)" stroke-miterlimit="1.45">
      <path fill="none" d="M990 675 L1035 690 L990 705 L945 690 Z" clip-path="url(#clipPath2)"/>
      <text x="967.1982" xml:space="preserve" y="694.3242" font-family="'Calibri'" clip-path="url(#clipPath2)" stroke="none">Является</text>
    </g>
    <g stroke-linecap="butt" transform="matrix(1,0,0,1,-705,-365)" stroke-miterlimit="1.45">
      <path fill="none" d="M870 495 L915 510 L870 525 L825 510 Z" clip-path="url(#clipPath2)"/>
      <text x="843.7646" xml:space="preserve" y="514.3242" font-family="'Calibri'" clip-path="url(#clipPath2)" stroke="none">Вызвается</text>
    </g>
    <g stroke-linecap="butt" transform="matrix(1,0,0,1,-705,-365)" stroke-miterlimit="1.45">
      <path fill="none" d="M710 520 L790 520 L790 560 L710 560 Z" clip-path="url(#clipPath2)"/>
      <rect fill="none" x="713" width="74" height="34" y="523" clip-path="url(#clipPath2)"/>
      <text x="734.165" xml:space="preserve" y="544.3242" font-family="'Calibri'" clip-path="url(#clipPath2)" stroke="none">Вызов</text>
    </g>
    <g stroke-linecap="butt" transform="matrix(1,0,0,1,-705,-365)" stroke-miterlimit="1.45">
      <path fill="none" d="M830 370 L910 370 L910 410 L830 410 Z" clip-path="url(#clipPath2)"/>
      <rect fill="none" x="833" width="74" height="34" y="373" clip-path="url(#clipPath2)"/>
      <text x="839.5547" xml:space="preserve" y="394.3242" font-family="'Calibri'" clip-path="url(#clipPath2)" stroke="none">Обобщение</text>
    </g>
    <g stroke-linecap="butt" transform="matrix(1,0,0,1,-705,-365)" stroke-miterlimit="1.45">
      <path fill="none" d="M960 435 L1005 450 L960 465 L915 450 Z" clip-path="url(#clipPath2)"/>
      <text x="938.0859" xml:space="preserve" y="454.3242" font-family="'Calibri'" clip-path="url(#clipPath2)" stroke="none">Базовый</text>
    </g>
    <g stroke-linecap="butt" transform="matrix(1,0,0,1,-705,-365)" stroke-miterlimit="1.45">
      <path fill="none" d="M1250 370 L1330 370 L1330 410 L1250 410 Z" clip-path="url(#clipPath2)"/>
      <rect fill="none" x="1253" width="74" height="34" y="373" clip-path="url(#clipPath2)"/>
      <text x="1257.4863" xml:space="preserve" y="394.3242" font-family="'Calibri'" clip-path="url(#clipPath2)" stroke="none">Зависимость</text>
    </g>
    <g stroke-linecap="butt" transform="matrix(1,0,0,1,-705,-365)" stroke-miterlimit="1.45">
      <path fill="none" d="M1200 435 L1245 450 L1200 465 L1155 450 Z" clip-path="url(#clipPath2)"/>
      <text x="1171.9775" xml:space="preserve" y="454.3242" font-family="'Calibri'" clip-path="url(#clipPath2)" stroke="none">Поставщик</text>
    </g>
    <g stroke-linecap="butt" transform="matrix(1,0,0,1,-705,-365)" stroke-miterlimit="1.45">
      <path fill="none" d="M870 555 L915 570 L870 585 L825 570 Z" clip-path="url(#clipPath2)"/>
      <text x="845.1504" xml:space="preserve" y="574.3242" font-family="'Calibri'" clip-path="url(#clipPath2)" stroke="none">Вызывает</text>
    </g>
    <g fill="url(#linearGradient5)" stroke-miterlimit="1.45" transform="matrix(1,0,0,1,-705,-365)" stroke-linecap="butt" stroke="url(#linearGradient5)">
      <ellipse rx="40" ry="10" clip-path="url(#clipPath2)" cx="1350" cy="570" stroke="none"/>
      <ellipse clip-path="url(#clipPath2)" fill="none" rx="40" cx="1350" ry="10" cy="570" stroke="black"/>
      <text x="1322.001" y="574.3242" clip-path="url(#clipPath2)" fill="black" font-family="'Calibri'" stroke="none" xml:space="preserve">Видимость</text>
    </g>
    <g fill="url(#linearGradient6)" stroke-miterlimit="1.45" transform="matrix(1,0,0,1,-705,-365)" stroke-linecap="butt" stroke="url(#linearGradient6)">
      <ellipse rx="40" ry="10" clip-path="url(#clipPath2)" cx="1350" cy="600" stroke="none"/>
      <ellipse clip-path="url(#clipPath2)" fill="none" rx="40" cx="1350" ry="10" cy="600" stroke="black"/>
      <text x="1318.7695" y="604.3242" clip-path="url(#clipPath2)" fill="black" font-family="'Calibri'" stroke="none" xml:space="preserve">Статическое</text>
    </g>
    <g fill="url(#linearGradient7)" stroke-miterlimit="1.45" transform="matrix(1,0,0,1,-705,-365)" stroke-linecap="butt" stroke="url(#linearGradient7)">
      <ellipse rx="40" ry="10" clip-path="url(#clipPath2)" cx="1080" cy="570" stroke="none"/>
      <ellipse clip-path="url(#clipPath2)" fill="none" rx="40" cx="1080" ry="10" cy="570" stroke="black"/>
      <text x="1052.001" y="574.3242" clip-path="url(#clipPath2)" fill="black" font-family="'Calibri'" stroke="none" xml:space="preserve">Видимость</text>
    </g>
    <g fill="url(#linearGradient8)" stroke-miterlimit="1.45" transform="matrix(1,0,0,1,-705,-365)" stroke-linecap="butt" stroke="url(#linearGradient8)">
      <ellipse rx="40" ry="10" clip-path="url(#clipPath2)" cx="1080" cy="600" stroke="none"/>
      <ellipse clip-path="url(#clipPath2)" fill="none" rx="40" cx="1080" ry="10" cy="600" stroke="black"/>
      <text x="1049.2002" y="604.3242" clip-path="url(#clipPath2)" fill="black" font-family="'Calibri'" stroke="none" xml:space="preserve">Статическая</text>
    </g>
    <g fill="url(#linearGradient9)" stroke-miterlimit="1.45" transform="matrix(1,0,0,1,-705,-365)" stroke-linecap="butt" stroke="url(#linearGradient9)">
      <ellipse rx="40" ry="10" clip-path="url(#clipPath2)" cx="1350" cy="632.5" stroke="none"/>
      <ellipse clip-path="url(#clipPath2)" fill="none" rx="40" cx="1350" ry="10" cy="632.5" stroke="black"/>
      <text x="1313.584" y="636.8242" clip-path="url(#clipPath2)" fill="black" font-family="'Calibri'" stroke="none" xml:space="preserve">Тип агрегации</text>
    </g>
    <g stroke-linecap="butt" transform="matrix(1,0,0,1,-705,-365)" stroke-miterlimit="1.45">
      <path fill="none" d="M1260 615 L1305 630 L1260 645 L1215 630 Z" clip-path="url(#clipPath2)"/>
      <text x="1237.1982" xml:space="preserve" y="634.3242" font-family="'Calibri'" clip-path="url(#clipPath2)" stroke="none">Является</text>
    </g>
    <g fill="url(#linearGradient10)" stroke-miterlimit="1.45" transform="matrix(1,0,0,1,-705,-365)" stroke-linecap="butt" stroke="url(#linearGradient10)">
      <ellipse rx="40" ry="10" clip-path="url(#clipPath2)" cx="780" cy="690" stroke="none"/>
      <ellipse clip-path="url(#clipPath2)" fill="none" rx="40" cx="780" ry="10" cy="690" stroke="black"/>
      <text x="745.8809" y="694.3242" clip-path="url(#clipPath2)" fill="black" font-family="'Calibri'" stroke="none" xml:space="preserve">Направление</text>
    </g>
    <g fill="url(#linearGradient11)" stroke-miterlimit="1.45" transform="matrix(1,0,0,1,-705,-365)" stroke-linecap="butt" stroke="url(#linearGradient11)">
      <ellipse rx="40" ry="15" clip-path="url(#clipPath2)" cx="780" cy="720" stroke="none"/>
      <ellipse clip-path="url(#clipPath2)" fill="none" rx="40" cx="780" ry="15" cy="720" stroke="black"/>
      <text x="747.7002" y="718.3242" clip-path="url(#clipPath2)" fill="black" font-family="'Calibri'" stroke="none" xml:space="preserve">Порядковый</text>
      <text x="763.4326" y="730.3242" clip-path="url(#clipPath2)" fill="black" font-family="'Calibri'" stroke="none" xml:space="preserve">номер</text>
    </g>
    <g stroke-linecap="butt" transform="matrix(1,0,0,1,-705,-365)" stroke-miterlimit="1.45">
      <path fill="none" d="M1170 555 L1215 570 L1170 585 L1125 570 Z" clip-path="url(#clipPath2)"/>
      <text x="1147.1982" xml:space="preserve" y="574.3242" font-family="'Calibri'" clip-path="url(#clipPath2)" stroke="none">Является</text>
    </g>
    <g fill="url(#linearGradient12)" stroke-miterlimit="1.45" transform="matrix(1,0,0,1,-705,-365)" stroke-linecap="butt" stroke="url(#linearGradient12)">
      <ellipse rx="40" ry="10" clip-path="url(#clipPath2)" cx="1020" cy="750" stroke="none"/>
      <ellipse clip-path="url(#clipPath2)" fill="none" rx="40" cx="1020" ry="10" cy="750" stroke="black"/>
      <text x="986.7891" y="754.3242" clip-path="url(#clipPath2)" fill="black" font-family="'Calibri'" stroke="none" xml:space="preserve">Мин. размер</text>
    </g>
    <g fill="url(#linearGradient13)" stroke-miterlimit="1.45" transform="matrix(1,0,0,1,-705,-365)" stroke-linecap="butt" stroke="url(#linearGradient13)">
      <ellipse rx="40" ry="10" clip-path="url(#clipPath2)" cx="1110" cy="750" stroke="none"/>
      <ellipse clip-path="url(#clipPath2)" fill="none" rx="40" cx="1110" ry="10" cy="750" stroke="black"/>
      <text x="1075.0459" y="754.3242" clip-path="url(#clipPath2)" fill="black" font-family="'Calibri'" stroke="none" xml:space="preserve">Макс. размер</text>
    </g>
    <g fill="url(#linearGradient14)" stroke-miterlimit="1.45" transform="matrix(1,0,0,1,-705,-365)" stroke-linecap="butt" stroke="url(#linearGradient14)">
      <ellipse rx="40" ry="10" clip-path="url(#clipPath2)" cx="1200" cy="690" stroke="none"/>
      <ellipse clip-path="url(#clipPath2)" fill="none" rx="40" cx="1200" ry="10" cy="690" stroke="black"/>
      <text x="1169.0332" y="694.3242" clip-path="url(#clipPath2)" fill="black" font-family="'Calibri'" stroke="none" xml:space="preserve">Упорядочен</text>
    </g>
    <g fill="url(#linearGradient15)" stroke-miterlimit="1.45" transform="matrix(1,0,0,1,-705,-365)" stroke-linecap="butt" stroke="url(#linearGradient15)">
      <ellipse rx="40" ry="15" clip-path="url(#clipPath2)" cx="1200" cy="750" stroke="none"/>
      <ellipse clip-path="url(#clipPath2)" fill="none" rx="40" cx="1200" ry="15" cy="750" stroke="black"/>
      <text x="1168.6582" y="748.3242" clip-path="url(#clipPath2)" fill="black" font-family="'Calibri'" stroke="none" xml:space="preserve">Уникальные</text>
      <text x="1176.2871" y="760.3242" clip-path="url(#clipPath2)" fill="black" font-family="'Calibri'" stroke="none" xml:space="preserve">значения</text>
    </g>
    <g stroke-linecap="butt" transform="matrix(1,0,0,1,-705,-365)" stroke-miterlimit="1.45">
      <path fill="none" d="M1050.0073 469.9951 L1004.9725 500.0183" clip-path="url(#clipPath2)"/>
    </g>
    <g fill="white" stroke-miterlimit="1.45" transform="matrix(1,0,0,1,-705,-365)" stroke-linecap="butt" stroke="white">
      <rect x="1025.9131" width="10.6738" height="18.7012" y="473.1494" clip-path="url(#clipPath2)" stroke="none"/>
      <text x="1027.9131" y="487.2139" clip-path="url(#clipPath2)" fill="black" font-family="sans-serif" stroke="none" xml:space="preserve">1</text>
      <path fill="none" d="M1080 399.9902 L1080 430.0254" clip-path="url(#clipPath2)" stroke="black"/>
      <path fill="none" d="M990 524.9707 L990 549.9919" clip-path="url(#clipPath2)" stroke="black"/>
      <rect x="983.667" width="12.666" height="18.7012" y="529.1494" clip-path="url(#clipPath2)" stroke="none"/>
      <text x="985.667" y="543.2139" clip-path="url(#clipPath2)" fill="black" font-family="sans-serif" stroke="none" xml:space="preserve">N</text>
      <path fill="none" d="M1325.9619 548.0127 L1299.9701 556.6766" clip-path="url(#clipPath2)" stroke="black"/>
      <path fill="none" d="M1120.0342 463.3447 L1237.4811 502.4937" clip-path="url(#clipPath2)" stroke="black"/>
      <rect x="1162.1631" width="10.6738" height="18.7012" y="469.8161" clip-path="url(#clipPath2)" stroke="none"/>
      <text x="1164.1631" y="483.8805" clip-path="url(#clipPath2)" fill="black" font-family="sans-serif" stroke="none" xml:space="preserve">1</text>
      <path fill="none" d="M1260 524.9707 L1260 549.9919" clip-path="url(#clipPath2)" stroke="black"/>
      <rect x="1253.667" width="12.666" height="18.7012" y="528.1494" clip-path="url(#clipPath2)" stroke="none"/>
      <text x="1255.667" y="542.2139" clip-path="url(#clipPath2)" fill="black" font-family="sans-serif" stroke="none" xml:space="preserve">N</text>
      <path fill="none" d="M990 590.0098 L990 614.9646" clip-path="url(#clipPath2)" stroke="black"/>
      <rect x="983.667" width="12.666" height="18.7012" y="594.1494" clip-path="url(#clipPath2)" stroke="none"/>
      <text x="985.667" y="608.2139" clip-path="url(#clipPath2)" fill="black" font-family="sans-serif" stroke="none" xml:space="preserve">N</text>
      <path fill="none" d="M1070.0098 670.0049 L1008.01 639.005" clip-path="url(#clipPath2)" stroke="black"/>
      <rect x="1039.6631" width="10.6738" height="18.7012" y="648.1494" clip-path="url(#clipPath2)" stroke="none"/>
      <text x="1041.6631" y="662.2139" clip-path="url(#clipPath2)" fill="black" font-family="sans-serif" stroke="none" xml:space="preserve">1</text>
      <path fill="none" d="M950.0098 589.9951 L888.01 620.995" clip-path="url(#clipPath2)" stroke="black"/>
      <rect x="919.6631" width="10.6738" height="18.7012" y="593.1494" clip-path="url(#clipPath2)" stroke="none"/>
      <text x="921.6631" y="607.2139" clip-path="url(#clipPath2)" fill="black" font-family="sans-serif" stroke="none" xml:space="preserve">1</text>
      <path fill="none" d="M870 644.9707 L870 669.9919" clip-path="url(#clipPath2)" stroke="black"/>
      <rect x="863.667" width="12.666" height="18.7012" y="648.1494" clip-path="url(#clipPath2)" stroke="none"/>
      <text x="865.667" y="662.2139" clip-path="url(#clipPath2)" fill="black" font-family="sans-serif" stroke="none" xml:space="preserve">N</text>
      <path fill="none" d="M1055.9619 548.0127 L1029.9701 556.6766" clip-path="url(#clipPath2)" stroke="black"/>
      <path fill="none" d="M804.0381 668.0127 L830.0299 676.6766" clip-path="url(#clipPath2)" stroke="black"/>
      <path fill="none" d="M1050.0073 430.0049 L1004.9725 399.9817" clip-path="url(#clipPath2)" stroke="black"/>
      <rect x="1025.081" width="10.6738" height="18.7012" y="407.5947" clip-path="url(#clipPath2)" stroke="none"/>
      <text x="1027.0811" y="421.6592" clip-path="url(#clipPath2)" fill="black" font-family="sans-serif" stroke="none" xml:space="preserve">1</text>
      <path fill="none" d="M1154.9927 400.0049 L1109.9897 430.0068" clip-path="url(#clipPath2)" stroke="black"/>
      <rect x="1123.4131" width="10.6738" height="18.7012" y="408.1494" clip-path="url(#clipPath2)" stroke="none"/>
      <text x="1125.4131" y="422.2139" clip-path="url(#clipPath2)" fill="black" font-family="sans-serif" stroke="none" xml:space="preserve">1</text>
      <path fill="none" d="M909.9902 690 L945.0336 690" clip-path="url(#clipPath2)" stroke="black"/>
      <rect x="921.167" width="12.666" height="18.7012" y="680.6494" clip-path="url(#clipPath2)" stroke="none"/>
      <text x="923.167" y="694.7139" clip-path="url(#clipPath2)" fill="black" font-family="sans-serif" stroke="none" xml:space="preserve">N</text>
      <path fill="none" d="M1070.0098 690 L1034.9664 690" clip-path="url(#clipPath2)" stroke="black"/>
      <rect x="1047.1631" width="10.6738" height="18.7012" y="680.6494" clip-path="url(#clipPath2)" stroke="none"/>
      <text x="1049.1631" y="694.7139" clip-path="url(#clipPath2)" fill="black" font-family="sans-serif" stroke="none" xml:space="preserve">1</text>
      <path fill="none" d="M950.0098 550.0049 L888.01 519.005" clip-path="url(#clipPath2)" stroke="black"/>
      <rect x="919.6631" width="10.6738" height="18.7012" y="528.1494" clip-path="url(#clipPath2)" stroke="none"/>
      <text x="921.6631" y="542.2139" clip-path="url(#clipPath2)" fill="black" font-family="sans-serif" stroke="none" xml:space="preserve">1</text>
      <path fill="none" d="M844.3066 516.4233 L790.0159 529.996" clip-path="url(#clipPath2)" stroke="black"/>
      <rect x="807.334" width="12.666" height="18.7012" y="514.7327" clip-path="url(#clipPath2)" stroke="none"/>
      <text x="809.334" y="528.7971" clip-path="url(#clipPath2)" fill="black" font-family="sans-serif" stroke="none" xml:space="preserve">N</text>
      <path fill="none" d="M909.9902 390 L945.0336 390" clip-path="url(#clipPath2)" stroke="black"/>
      <rect x="921.167" width="12.666" height="18.7012" y="380.6494" clip-path="url(#clipPath2)" stroke="none"/>
      <text x="923.167" y="394.7139" clip-path="url(#clipPath2)" fill="black" font-family="sans-serif" stroke="none" xml:space="preserve">N</text>
      <path fill="none" d="M1040.0098 450 L1004.9664 450" clip-path="url(#clipPath2)" stroke="black"/>
      <rect x="1017.1631" width="10.6738" height="18.7012" y="440.6494" clip-path="url(#clipPath2)" stroke="none"/>
      <text x="1019.1631" y="454.7139" clip-path="url(#clipPath2)" fill="black" font-family="sans-serif" stroke="none" xml:space="preserve">1</text>
      <path fill="none" d="M899.9927 409.9951 L945.0275 440.0183" clip-path="url(#clipPath2)" stroke="black"/>
      <rect x="912.833" width="12.666" height="18.7012" y="413.4268" clip-path="url(#clipPath2)" stroke="none"/>
      <text x="914.833" y="427.4912" clip-path="url(#clipPath2)" fill="black" font-family="sans-serif" stroke="none" xml:space="preserve">N</text>
      <path fill="none" d="M1250.0098 390 L1214.9664 390" clip-path="url(#clipPath2)" stroke="black"/>
      <rect x="1220" width="12.666" height="18.7012" y="380.6494" clip-path="url(#clipPath2)" stroke="none"/>
      <text x="1222" y="394.7139" clip-path="url(#clipPath2)" fill="black" font-family="sans-serif" stroke="none" xml:space="preserve">N</text>
      <path fill="none" d="M1260.0073 409.9951 L1214.9725 440.0183" clip-path="url(#clipPath2)" stroke="black"/>
      <rect x="1234.0849" width="12.666" height="18.7012" y="413.7041" clip-path="url(#clipPath2)" stroke="none"/>
      <text x="1236.085" y="427.7686" clip-path="url(#clipPath2)" fill="black" font-family="sans-serif" stroke="none" xml:space="preserve">N</text>
      <path fill="none" d="M1154.9707 450 L1120.0112 450" clip-path="url(#clipPath2)" stroke="black"/>
      <rect x="1132.1631" width="10.6738" height="18.7012" y="440.6494" clip-path="url(#clipPath2)" stroke="none"/>
      <text x="1134.1631" y="454.7139" clip-path="url(#clipPath2)" fill="black" font-family="sans-serif" stroke="none" xml:space="preserve">1</text>
      <path fill="none" d="M789.9902 549.9976 L844.2547 563.5637" clip-path="url(#clipPath2)" stroke="black"/>
      <rect x="807.334" width="12.666" height="18.7012" y="546.5662" clip-path="url(#clipPath2)" stroke="none"/>
      <text x="809.334" y="560.6306" clip-path="url(#clipPath2)" fill="black" font-family="sans-serif" stroke="none" xml:space="preserve">N</text>
      <path fill="none" d="M914.9707 570 L950.0308 570" clip-path="url(#clipPath2)" stroke="black"/>
      <rect x="927.1631" width="10.6738" height="18.7012" y="560.6494" clip-path="url(#clipPath2)" stroke="none"/>
      <text x="929.1631" y="574.7139" clip-path="url(#clipPath2)" fill="black" font-family="sans-serif" stroke="none" xml:space="preserve">1</text>
      <path fill="none" d="M1300.0342 570 L1310.0371 570" clip-path="url(#clipPath2)" stroke="black"/>
      <path fill="none" d="M1300.0342 583.3447 L1326.0173 592.0058" clip-path="url(#clipPath2)" stroke="black"/>
      <path fill="none" d="M1030.0342 570 L1040.0371 570" clip-path="url(#clipPath2)" stroke="black"/>
      <path fill="none" d="M1055.9619 591.9873 L1029.9701 583.3234" clip-path="url(#clipPath2)" stroke="black"/>
      <path fill="none" d="M1336.4429 623.0853 L1288.7781 589.9847" clip-path="url(#clipPath2)" stroke="black"/>
      <path fill="none" d="M1260 590.0098 L1260 614.9646" clip-path="url(#clipPath2)" stroke="black"/>
      <rect x="1253.667" width="12.666" height="18.7012" y="594.1494" clip-path="url(#clipPath2)" stroke="none"/>
      <text x="1255.667" y="608.2139" clip-path="url(#clipPath2)" fill="black" font-family="sans-serif" stroke="none" xml:space="preserve">N</text>
      <path fill="none" d="M1239.5288 638.1885 L1150.0034 673.9987" clip-path="url(#clipPath2)" stroke="black"/>
      <rect x="1199.3262" width="10.6738" height="18.7012" y="642.7842" clip-path="url(#clipPath2)" stroke="none"/>
      <text x="1201.3262" y="656.8486" clip-path="url(#clipPath2)" fill="black" font-family="sans-serif" stroke="none" xml:space="preserve">1</text>
      <path fill="none" d="M829.9658 690 L819.9629 690" clip-path="url(#clipPath2)" stroke="black"/>
      <path fill="none" d="M829.9658 703.3447 L809.8868 710.0377" clip-path="url(#clipPath2)" stroke="black"/>
      <path fill="none" d="M1095.0073 470.0098 L1161.0104 558.0139" clip-path="url(#clipPath2)" stroke="black"/>
      <rect x="1121.5381" width="10.6738" height="18.7012" y="503.1494" clip-path="url(#clipPath2)" stroke="none"/>
      <text x="1123.5381" y="517.2139" clip-path="url(#clipPath2)" fill="black" font-family="sans-serif" stroke="none" xml:space="preserve">1</text>
      <path fill="none" d="M1120.0049 669.9902 L1163.5675 582.8649" clip-path="url(#clipPath2)" stroke="black"/>
      <rect x="1134.917" width="12.666" height="18.7012" y="618.1494" clip-path="url(#clipPath2)" stroke="none"/>
      <text x="1136.917" y="632.2139" clip-path="url(#clipPath2)" fill="black" font-family="sans-serif" stroke="none" xml:space="preserve">N</text>
      <path fill="none" d="M1080.0073 709.9951 L1034.0349 740.6434" clip-path="url(#clipPath2)" stroke="black"/>
      <path fill="none" d="M1110 710.0098 L1110 739.9634" clip-path="url(#clipPath2)" stroke="black"/>
      <path fill="none" d="M1150.0342 690 L1160.0371 690" clip-path="url(#clipPath2)" stroke="black"/>
      <path fill="none" d="M1139.9927 709.9951 L1180.3979 736.932" clip-path="url(#clipPath2)" stroke="black"/>
    </g>
  </g>
</svg>
