<?xml version="1.0" encoding="UTF-8"?><svg xmlns="http://www.w3.org/2000/svg" xmlns:xlink="http://www.w3.org/1999/xlink" fill-opacity="1" color-rendering="auto" color-interpolation="auto" stroke="black" text-rendering="auto" stroke-linecap="square" width="509" stroke-miterlimit="10" stroke-opacity="1" shape-rendering="auto" fill="black" stroke-dasharray="none" font-weight="normal" stroke-width="1" height="290" font-family="'Dialog'" font-style="normal" stroke-linejoin="miter" font-size="12" stroke-dashoffset="0" image-rendering="auto">
  <!--Generated by ySVG-->
  <defs id="genericDefs"/>
  <g>
    <defs id="defs1">
      <linearGradient x1="470" gradientUnits="userSpaceOnUse" x2="550" y1="400" y2="440" id="linearGradient1" spreadMethod="pad">
        <stop stop-opacity="1" stop-color="white" offset="0%"/>
        <stop stop-opacity="1" stop-color="white" offset="100%"/>
      </linearGradient>
      <linearGradient x1="680" gradientUnits="userSpaceOnUse" x2="760" y1="400" y2="440" id="linearGradient2" spreadMethod="pad">
        <stop stop-opacity="1" stop-color="white" offset="0%"/>
        <stop stop-opacity="1" stop-color="white" offset="100%"/>
      </linearGradient>
      <linearGradient x1="680" gradientUnits="userSpaceOnUse" x2="760" y1="550" y2="590" id="linearGradient3" spreadMethod="pad">
        <stop stop-opacity="1" stop-color="white" offset="0%"/>
        <stop stop-opacity="1" stop-color="white" offset="100%"/>
      </linearGradient>
      <linearGradient x1="890" gradientUnits="userSpaceOnUse" x2="970" y1="550" y2="590" id="linearGradient4" spreadMethod="pad">
        <stop stop-opacity="1" stop-color="white" offset="0%"/>
        <stop stop-opacity="1" stop-color="white" offset="100%"/>
      </linearGradient>
      <linearGradient x1="890" gradientUnits="userSpaceOnUse" x2="970" y1="400" y2="440" id="linearGradient5" spreadMethod="pad">
        <stop stop-opacity="1" stop-color="white" offset="0%"/>
        <stop stop-opacity="1" stop-color="white" offset="100%"/>
      </linearGradient>
      <clipPath clipPathUnits="userSpaceOnUse" id="clipPath1">
        <path d="M0 0 L509 0 L509 290 L0 290 L0 0 Z"/>
      </clipPath>
      <clipPath clipPathUnits="userSpaceOnUse" id="clipPath2">
        <path d="M466 350 L975 350 L975 640 L466 640 L466 350 Z"/>
      </clipPath>
    </defs>
    <g fill="white" transform="translate(-466,-350)" stroke="white">
      <rect x="466" width="509" height="290" y="350" clip-path="url(#clipPath2)" stroke="none"/>
    </g>
    <g fill="url(#linearGradient1)" stroke-miterlimit="1.45" transform="matrix(1,0,0,1,-466,-350)" stroke-linecap="butt" stroke="url(#linearGradient1)">
      <path d="M470 400 L550 400 L550 440 L470 440 Z" clip-path="url(#clipPath2)" stroke="none"/>
      <path fill="none" d="M470 400 L550 400 L550 440 L470 440 Z" clip-path="url(#clipPath2)" stroke="black"/>
    </g>
    <g font-size="14" stroke-miterlimit="1.45" font-family="'Times New Roman'" transform="matrix(1,0,0,1,-466,-350)" stroke-linecap="butt">
      <text x="483.1724" xml:space="preserve" y="425.021" clip-path="url(#clipPath2)" stroke="none">Classifier</text>
    </g>
    <g fill="url(#linearGradient2)" stroke-miterlimit="1.45" transform="matrix(1,0,0,1,-466,-350)" stroke-linecap="butt" stroke="url(#linearGradient2)">
      <path d="M680 400 L760 400 L760 440 L680 440 Z" clip-path="url(#clipPath2)" stroke="none"/>
      <path fill="none" d="M680 400 L760 400 L760 440 L680 440 Z" clip-path="url(#clipPath2)" stroke="black"/>
    </g>
    <g font-size="14" stroke-miterlimit="1.45" font-family="'Times New Roman'" transform="matrix(1,0,0,1,-466,-350)" stroke-linecap="butt">
      <text x="695.8931" xml:space="preserve" y="425.021" clip-path="url(#clipPath2)" stroke="none">Property</text>
    </g>
    <g fill="url(#linearGradient3)" stroke-miterlimit="1.45" transform="matrix(1,0,0,1,-466,-350)" stroke-linecap="butt" stroke="url(#linearGradient3)">
      <path d="M680 550 L760 550 L760 590 L680 590 Z" clip-path="url(#clipPath2)" stroke="none"/>
      <path fill="none" d="M680 550 L760 550 L760 590 L680 590 Z" clip-path="url(#clipPath2)" stroke="black"/>
    </g>
    <g font-size="14" stroke-miterlimit="1.45" font-family="'Times New Roman'" transform="matrix(1,0,0,1,-466,-350)" stroke-linecap="butt">
      <text x="692.0103" xml:space="preserve" y="575.021" clip-path="url(#clipPath2)" stroke="none">Operation</text>
    </g>
    <g fill="url(#linearGradient4)" stroke-miterlimit="1.45" transform="matrix(1,0,0,1,-466,-350)" stroke-linecap="butt" stroke="url(#linearGradient4)">
      <path d="M890 550 L970 550 L970 590 L890 590 Z" clip-path="url(#clipPath2)" stroke="none"/>
      <path fill="none" d="M890 550 L970 550 L970 590 L890 590 Z" clip-path="url(#clipPath2)" stroke="black"/>
    </g>
    <g font-size="14" stroke-miterlimit="1.45" font-family="'Times New Roman'" transform="matrix(1,0,0,1,-466,-350)" stroke-linecap="butt">
      <text x="901.6274" xml:space="preserve" y="575.021" clip-path="url(#clipPath2)" stroke="none">Parameter</text>
    </g>
    <g fill="url(#linearGradient5)" stroke-miterlimit="1.45" transform="matrix(1,0,0,1,-466,-350)" stroke-linecap="butt" stroke="url(#linearGradient5)">
      <path d="M890 400 L970 400 L970 440 L890 440 Z" clip-path="url(#clipPath2)" stroke="none"/>
      <path fill="none" d="M890 400 L970 400 L970 440 L890 440 Z" clip-path="url(#clipPath2)" stroke="black"/>
    </g>
    <g font-size="14" stroke-miterlimit="1.45" font-family="'Times New Roman'" transform="matrix(1,0,0,1,-466,-350)" stroke-linecap="butt">
      <text x="915.6172" xml:space="preserve" y="425.021" clip-path="url(#clipPath2)" stroke="none">Type</text>
    </g>
    <g stroke-linecap="butt" transform="matrix(1,0,0,1,-466,-350)" stroke-miterlimit="1.45">
      <path fill="none" d="M538.175 399.9616 L539.3905 396.0461 L539.8451 393.0673 L540 390 L539.8451 386.9327 L539.3905 383.9539 L537.6425 378.3226 L534.8765 373.2267 L531.2132 368.7868 L526.7733 365.1235 L521.6774 362.3575 L516.046 360.6095 L513.0673 360.1549 L510 360 L506.9327 360.1549 L503.9539 360.6095 L498.3226 362.3575 L493.2267 365.1235 L488.7868 368.7868 L485.1235 373.2267 L482.3575 378.3226 L480.6095 383.9539 L480.1549 386.9327 L480 390 L480.1085 392.1479 L480.132 392.2451" clip-path="url(#clipPath2)"/>
    </g>
    <g stroke-linecap="butt" transform="matrix(1,0,0,1,-466,-350)" stroke-miterlimit="1.45">
      <path d="M481.8464 400.0592 L484.1586 387.2665 L479.9177 391.2683 L474.391 389.4095 Z" clip-path="url(#clipPath2)" stroke="none"/>
      <rect x="466.7998" y="350.248" clip-path="url(#clipPath2)" fill="white" width="86.4004" height="19.5039" stroke="none"/>
      <text x="468.7998" font-size="14" y="365.021" clip-path="url(#clipPath2)" font-family="'Times New Roman'" stroke="none" xml:space="preserve">Generalization</text>
      <path fill="none" d="M481.825 440.0384 L480.6095 443.9539 L480.1549 446.9327 L480 450 L480.1549 453.0673 L480.6095 456.0461 L482.3575 461.6774 L485.1235 466.7733 L488.7868 471.2132 L493.2267 474.8765 L498.3226 477.6425 L503.9539 479.3905 L506.9327 479.8451 L510 480 L513.0673 479.8451 L516.046 479.3905 L521.6774 477.6425 L526.7733 474.8765 L531.2132 471.2132 L534.8765 466.7733 L537.6425 461.6774 L539.3905 456.0461 L539.8451 453.0673 L540 450 L539.8915 447.8521 L539.868 447.7549" clip-path="url(#clipPath2)"/>
      <path d="M538.1536 439.9408 L535.8413 452.7335 L540.0823 448.7317 L545.609 450.5905 Z" clip-path="url(#clipPath2)" stroke="none"/>
      <rect x="473.0171" y="470.248" clip-path="url(#clipPath2)" fill="white" width="73.9658" height="19.5039" stroke="none"/>
      <text x="475.0171" font-size="14" y="485.021" clip-path="url(#clipPath2)" font-family="'Times New Roman'" stroke="none" xml:space="preserve">Dependency</text>
      <path fill="none" d="M550.0159 420 L672.0355 420" clip-path="url(#clipPath2)"/>
      <path d="M680.0355 420 L668.0355 415 L671.0355 420 L668.0355 425 Z" clip-path="url(#clipPath2)" stroke="none"/>
      <rect x="578.0068" y="410.248" clip-path="url(#clipPath2)" fill="white" width="73.9863" height="19.5039" stroke="none"/>
      <text x="580.0068" font-size="14" y="425.021" clip-path="url(#clipPath2)" font-family="'Times New Roman'" stroke="none" xml:space="preserve">HasProperty</text>
      <path fill="none" d="M538.0188 440.0134 L685.4777 545.3412" clip-path="url(#clipPath2)"/>
      <path d="M691.9875 549.9911 L685.1289 538.9476 L684.6639 544.7599 L679.3165 547.0848 Z" clip-path="url(#clipPath2)" stroke="none"/>
      <rect x="574.124" y="485.248" clip-path="url(#clipPath2)" fill="white" width="81.752" height="19.5039" stroke="none"/>
      <text x="576.124" font-size="14" y="500.021" clip-path="url(#clipPath2)" font-family="'Times New Roman'" stroke="none" xml:space="preserve">HasOperation</text>
      <path fill="none" d="M748.175 549.9615 L749.3905 546.046 L749.8451 543.0673 L750 540 L749.8451 536.9327 L749.3905 533.954 L747.6425 528.3226 L744.8765 523.2267 L741.2132 518.7868 L736.7733 515.1235 L731.6774 512.3575 L726.046 510.6095 L723.0673 510.1549 L720 510 L716.9327 510.1549 L713.954 510.6095 L708.3226 512.3575 L703.2267 515.1235 L698.7868 518.7868 L695.1235 523.2267 L692.3575 528.3226 L690.6095 533.954 L690.1549 536.9327 L690 540 L690.1085 542.1479 L690.132 542.2451" clip-path="url(#clipPath2)"/>
      <path d="M691.8464 550.0592 L694.1587 537.2665 L689.9177 541.2683 L684.391 539.4094 Z" clip-path="url(#clipPath2)" stroke="none"/>
      <rect x="688.0654" y="500.248" clip-path="url(#clipPath2)" fill="white" width="63.8691" height="19.5039" stroke="none"/>
      <text x="690.0654" font-size="14" y="515.021" clip-path="url(#clipPath2)" font-family="'Times New Roman'" stroke="none" xml:space="preserve">Invocation</text>
      <path fill="none" d="M691.825 590.0385 L690.6095 593.954 L690.1549 596.9327 L690 600 L690.1549 603.0673 L690.6095 606.046 L692.3575 611.6774 L695.1235 616.7733 L698.7868 621.2132 L703.2267 624.8765 L708.3226 627.6425 L713.954 629.3905 L716.9327 629.8451 L720 630 L723.0673 629.8451 L726.046 629.3905 L731.6774 627.6425 L736.7733 624.8765 L741.2132 621.2132 L744.8765 616.7733 L747.6425 611.6774 L749.3905 606.046 L749.8451 603.0673 L750 600 L749.8915 597.8521 L749.868 597.7549" clip-path="url(#clipPath2)"/>
      <path d="M748.1536 589.9408 L745.8413 602.7335 L750.0823 598.7317 L755.609 600.5906 Z" clip-path="url(#clipPath2)" stroke="none"/>
      <rect x="687.2861" y="620.248" clip-path="url(#clipPath2)" fill="white" width="65.4277" height="19.5039" stroke="none"/>
      <text x="689.2861" font-size="14" y="635.021" clip-path="url(#clipPath2)" font-family="'Times New Roman'" stroke="none" xml:space="preserve">Overriding</text>
      <path fill="none" d="M760.0159 570 L882.0355 570" clip-path="url(#clipPath2)"/>
      <path d="M890.0355 570 L878.0355 565 L881.0355 570 L878.0355 575 Z" clip-path="url(#clipPath2)" stroke="none"/>
      <rect x="783.7412" y="560.248" clip-path="url(#clipPath2)" fill="white" width="82.5176" height="19.5039" stroke="none"/>
      <text x="785.7412" font-size="14" y="575.021" clip-path="url(#clipPath2)" font-family="'Times New Roman'" stroke="none" xml:space="preserve">HasParameter</text>
      <path fill="none" d="M760.0159 420 L882.0355 420" clip-path="url(#clipPath2)"/>
      <path d="M890.0355 420 L878.0355 415 L881.0355 420 L878.0355 425 Z" clip-path="url(#clipPath2)" stroke="none"/>
      <rect x="784.5103" y="410.248" clip-path="url(#clipPath2)" fill="white" width="80.9795" height="19.5039" stroke="none"/>
      <text x="786.5103" font-size="14" y="425.021" clip-path="url(#clipPath2)" font-family="'Times New Roman'" stroke="none" xml:space="preserve">PropertyType</text>
      <path fill="none" d="M748.0188 549.9866 L895.4777 444.6588" clip-path="url(#clipPath2)"/>
      <path d="M901.9875 440.0089 L889.3165 442.9151 L894.6639 445.2401 L895.1289 451.0524 Z" clip-path="url(#clipPath2)" stroke="none"/>
      <rect x="777.1206" y="485.248" clip-path="url(#clipPath2)" fill="white" width="95.7588" height="19.5039" stroke="none"/>
      <text x="779.1206" font-size="14" y="500.021" clip-path="url(#clipPath2)" font-family="'Times New Roman'" stroke="none" xml:space="preserve">OperationResult</text>
      <path fill="none" d="M930 549.9683 L930 448.022" clip-path="url(#clipPath2)"/>
      <path d="M930 440.022 L925 452.022 L930 449.022 L935 452.022 Z" clip-path="url(#clipPath2)" stroke="none"/>
      <rect x="885.2446" y="485.248" clip-path="url(#clipPath2)" fill="white" width="89.5107" height="19.5039" stroke="none"/>
      <text x="887.2446" font-size="14" y="500.021" clip-path="url(#clipPath2)" font-family="'Times New Roman'" stroke="none" xml:space="preserve">ParameterType</text>
      <path fill="none" d="M890.9583 399.9985 L877.5 393.75 L851.25 383.4375 L825 375 L798.75 368.4375 L772.5 363.75 L746.25 360.9375 L720 360 L693.75 360.9375 L667.5 363.75 L641.25 368.4375 L615 375 L588.75 383.4375 L562.5 393.75 L556.2978 396.6296" clip-path="url(#clipPath2)"/>
      <path d="M549.0417 399.9985 L562.0314 399.4802 L557.2048 396.2085 L557.8203 390.4101 Z" clip-path="url(#clipPath2)" stroke="none"/>
      <rect x="676.7896" y="350.248" clip-path="url(#clipPath2)" fill="white" width="86.4209" height="19.5039" stroke="none"/>
      <text x="678.7896" font-size="14" y="365.021" clip-path="url(#clipPath2)" font-family="'Times New Roman'" stroke="none" xml:space="preserve">TypeClassifier</text>
    </g>
  </g>
</svg>
