<?xml version="1.0" encoding="utf-8" ?>
<!DOCTYPE svg PUBLIC "-//W3C//DTD SVG 1.1//EN" "http://www.w3.org/Graphics/SVG/1.1/DTD/svg11.dtd">
<svg height="497" version="1.1" width="662" xmlns="http://www.w3.org/2000/svg">
<rect fill="#ffffff" height="73" stroke="#ffffff" stroke-width="1" width="97" x="273" y="118"/>
<rect fill="none" height="73" stroke="#000000" stroke-width="1" width="97" x="273" y="118"/>
<text font-family="Times New Roman" font-size="14" x="279" y="132">
NamedElement</text>
<rect fill="#000000" height="1" stroke="#000000" stroke-width="1" width="97" x="273" y="143"/>
<text font-family="Times New Roman" font-size="14" x="277" y="158">
name : String</text>
<rect fill="#000000" height="1" stroke="#000000" stroke-width="1" width="97" x="273" y="169"/>
<rect fill="#ffffff" height="68" stroke="#ffffff" stroke-width="1" width="66" x="161" y="214"/>
<rect fill="none" height="68" stroke="#000000" stroke-width="1" width="66" x="161" y="214"/>
<text font-family="Times New Roman" font-size="14" x="169" y="228">
Property</text>
<rect fill="#000000" height="1" stroke="#000000" stroke-width="1" width="66" x="161" y="239"/>
<rect fill="#000000" height="1" stroke="#000000" stroke-width="1" width="66" x="161" y="260"/>
<rect fill="#ffffff" height="68" stroke="#ffffff" stroke-width="1" width="66" x="329" y="214"/>
<rect fill="none" height="68" stroke="#000000" stroke-width="1" width="66" x="329" y="214"/>
<text font-family="Times New Roman" font-size="14" x="336" y="228">
Classifier</text>
<rect fill="#000000" height="1" stroke="#000000" stroke-width="1" width="66" x="329" y="239"/>
<rect fill="#000000" height="1" stroke="#000000" stroke-width="1" width="66" x="329" y="260"/>
<rect fill="#ffffff" height="68" stroke="#ffffff" stroke-width="1" width="66" x="409" y="214"/>
<rect fill="none" height="68" stroke="#000000" stroke-width="1" width="66" x="409" y="214"/>
<text font-family="Times New Roman" font-size="14" x="414" y="228">
Operation</text>
<rect fill="#000000" height="1" stroke="#000000" stroke-width="1" width="66" x="409" y="239"/>
<rect fill="#000000" height="1" stroke="#000000" stroke-width="1" width="66" x="409" y="260"/>
<rect fill="#ffffff" height="68" stroke="#ffffff" stroke-width="1" width="68" x="249" y="214"/>
<rect fill="none" height="68" stroke="#000000" stroke-width="1" width="68" x="249" y="214"/>
<text font-family="Times New Roman" font-size="14" x="254" y="228">
Parameter</text>
<rect fill="#000000" height="1" stroke="#000000" stroke-width="1" width="68" x="249" y="239"/>
<rect fill="#000000" height="1" stroke="#000000" stroke-width="1" width="68" x="249" y="260"/>
<polyline fill="none" points="226,214 273,190" stroke="#000000" stroke-width="1"/>
<polygon fill="#ffffff" points="273,190 265,201 259,189" stroke="#ffffff" stroke-width="1"/>
<polygon fill="none" points="273,190 265,201 259,189" stroke="#000000" stroke-width="1"/>
<polyline fill="none" points="308,214 308,190" stroke="#000000" stroke-width="1"/>
<polygon fill="#ffffff" points="308,190 315,202 301,202" stroke="#ffffff" stroke-width="1"/>
<polygon fill="none" points="308,190 315,202 301,202" stroke="#000000" stroke-width="1"/>
<polyline fill="none" points="345,214 345,190" stroke="#000000" stroke-width="1"/>
<polygon fill="#ffffff" points="345,190 352,202 338,202" stroke="#ffffff" stroke-width="1"/>
<polygon fill="none" points="345,190 352,202 338,202" stroke="#000000" stroke-width="1"/>
<polyline fill="none" points="409,214 369,190" stroke="#000000" stroke-width="1"/>
<polygon fill="#ffffff" points="369,190 382,190 375,202" stroke="#ffffff" stroke-width="1"/>
<polygon fill="none" points="369,190 382,190 375,202" stroke="#000000" stroke-width="1"/>
<rect fill="#ffffff" height="68" stroke="#ffffff" stroke-width="1" width="66" x="345" y="14"/>
<rect fill="none" height="68" stroke="#000000" stroke-width="1" width="66" x="345" y="14"/>
<text font-family="Times New Roman" font-size="14" x="355" y="28">
Element</text>
<rect fill="#000000" height="1" stroke="#000000" stroke-width="1" width="66" x="345" y="39"/>
<rect fill="#000000" height="1" stroke="#000000" stroke-width="1" width="66" x="345" y="60"/>
<polyline fill="none" points="361,118 361,81" stroke="#000000" stroke-width="1"/>
<polygon fill="#ffffff" points="361,81 368,93 354,93" stroke="#ffffff" stroke-width="1"/>
<polygon fill="none" points="361,81 368,93 354,93" stroke="#000000" stroke-width="1"/>
<rect fill="#ffffff" height="68" stroke="#ffffff" stroke-width="1" width="66" x="393" y="118"/>
<rect fill="none" height="68" stroke="#000000" stroke-width="1" width="66" x="393" y="118"/>
<text font-family="Times New Roman" font-size="14" x="411" y="132">
Type</text>
<rect fill="#000000" height="1" stroke="#000000" stroke-width="1" width="66" x="393" y="143"/>
<rect fill="#000000" height="1" stroke="#000000" stroke-width="1" width="66" x="393" y="164"/>
<rect fill="#ffffff" height="68" stroke="#ffffff" stroke-width="1" width="66" x="401" y="318"/>
<rect fill="none" height="68" stroke="#000000" stroke-width="1" width="66" x="401" y="318"/>
<text font-family="Times New Roman" font-size="14" x="419" y="332">
Class</text>
<rect fill="#000000" height="1" stroke="#000000" stroke-width="1" width="66" x="401" y="343"/>
<rect fill="#000000" height="1" stroke="#000000" stroke-width="1" width="66" x="401" y="364"/>
<rect fill="#ffffff" height="68" stroke="#ffffff" stroke-width="1" width="89" x="473" y="318"/>
<rect fill="none" height="68" stroke="#000000" stroke-width="1" width="89" x="473" y="318"/>
<text font-family="Times New Roman" font-size="14" x="478" y="332">
PrimitiveType</text>
<rect fill="#000000" height="1" stroke="#000000" stroke-width="1" width="89" x="473" y="343"/>
<rect fill="#000000" height="1" stroke="#000000" stroke-width="1" width="89" x="473" y="364"/>
<rect fill="#ffffff" height="68" stroke="#ffffff" stroke-width="1" width="66" x="169" y="318"/>
<rect fill="none" height="68" stroke="#000000" stroke-width="1" width="66" x="169" y="318"/>
<text font-family="Times New Roman" font-size="14" x="174" y="332">
DataType</text>
<rect fill="#000000" height="1" stroke="#000000" stroke-width="1" width="66" x="169" y="343"/>
<rect fill="#000000" height="1" stroke="#000000" stroke-width="1" width="66" x="169" y="364"/>
<rect fill="#ffffff" height="68" stroke="#ffffff" stroke-width="1" width="66" x="329" y="318"/>
<rect fill="none" height="68" stroke="#000000" stroke-width="1" width="66" x="329" y="318"/>
<text font-family="Times New Roman" font-size="14" x="336" y="332">
Interface</text>
<rect fill="#000000" height="1" stroke="#000000" stroke-width="1" width="66" x="329" y="343"/>
<rect fill="#000000" height="1" stroke="#000000" stroke-width="1" width="66" x="329" y="364"/>
<rect fill="#ffffff" height="68" stroke="#ffffff" stroke-width="1" width="81" x="241" y="318"/>
<rect fill="none" height="68" stroke="#000000" stroke-width="1" width="81" x="241" y="318"/>
<text font-family="Times New Roman" font-size="14" x="246" y="332">
Enumeration</text>
<rect fill="#000000" height="1" stroke="#000000" stroke-width="1" width="81" x="241" y="343"/>
<rect fill="#000000" height="1" stroke="#000000" stroke-width="1" width="81" x="241" y="364"/>
<polyline fill="none" points="401,318 394,281" stroke="#000000" stroke-width="1"/>
<polygon fill="#ffffff" points="394,281 403,291 389,294" stroke="#ffffff" stroke-width="1"/>
<polygon fill="none" points="394,281 403,291 389,294" stroke="#000000" stroke-width="1"/>
<polyline fill="none" points="473,318 394,281" stroke="#000000" stroke-width="1"/>
<polygon fill="#ffffff" points="394,281 407,279 401,292" stroke="#ffffff" stroke-width="1"/>
<polygon fill="none" points="394,281 407,279 401,292" stroke="#000000" stroke-width="1"/>
<polyline fill="none" points="361,318 361,281" stroke="#000000" stroke-width="1"/>
<polygon fill="#ffffff" points="361,281 368,293 354,293" stroke="#ffffff" stroke-width="1"/>
<polygon fill="none" points="361,281 368,293 354,293" stroke="#000000" stroke-width="1"/>
<polyline fill="none" points="234,318 329,281" stroke="#000000" stroke-width="1"/>
<polygon fill="#ffffff" points="329,281 320,291 315,278" stroke="#ffffff" stroke-width="1"/>
<polygon fill="none" points="329,281 320,291 315,278" stroke="#000000" stroke-width="1"/>
<polyline fill="none" points="321,318 329,281" stroke="#000000" stroke-width="1"/>
<polygon fill="#ffffff" points="329,281 333,294 319,291" stroke="#ffffff" stroke-width="1"/>
<polygon fill="none" points="329,281 333,294 319,291" stroke="#000000" stroke-width="1"/>
<polyline fill="none" points="401,118 401,81" stroke="#000000" stroke-width="1"/>
<polygon fill="#ffffff" points="401,81 408,93 394,93" stroke="#ffffff" stroke-width="1"/>
<polygon fill="none" points="401,81 408,93 394,93" stroke="#000000" stroke-width="1"/>
</svg>
